<mxfile host="Electron" modified="2024-03-01T00:58:53.474Z" agent="Mozilla/5.0 (Windows NT 10.0; Win64; x64) AppleWebKit/537.36 (KHTML, like Gecko) draw.io/23.1.5 Chrome/120.0.6099.109 Electron/28.1.0 Safari/537.36" etag="8gN5GEYH78WaqwyGLyZY" version="23.1.5" type="device">
  <diagram name="Page-1" id="eoYuAGQ_ubkwBYA8UBmG">
    <mxGraphModel dx="10136" dy="4944" grid="1" gridSize="11" guides="1" tooltips="1" connect="1" arrows="1" fold="1" page="0" pageScale="1" pageWidth="1100" pageHeight="850" math="0" shadow="0">
      <root>
        <mxCell id="0" />
        <mxCell id="1" parent="0" />
        <mxCell id="TRhLqOV86OLp4Ln8h1bd-311" value="" style="shadow=0;dashed=0;html=1;strokeColor=none;fillColor=#EF8F21;labelPosition=center;verticalLabelPosition=bottom;verticalAlign=top;align=center;outlineConnect=0;shape=mxgraph.veeam.linux;" parent="1" vertex="1">
          <mxGeometry x="-2524.5" y="2154.5" width="242" height="198" as="geometry" />
        </mxCell>
        <mxCell id="TRhLqOV86OLp4Ln8h1bd-67" value="On-Premise" style="sketch=0;outlineConnect=0;gradientColor=none;html=1;whiteSpace=wrap;fontSize=12;fontStyle=0;shape=mxgraph.aws4.group;grIcon=mxgraph.aws4.group_on_premise;strokeColor=#AAB7B8;fillColor=none;verticalAlign=top;align=left;spacingLeft=30;fontColor=#AAB7B8;dashed=0;" parent="1" vertex="1">
          <mxGeometry x="-3124" y="88" width="913" height="2486" as="geometry" />
        </mxCell>
        <mxCell id="TRhLqOV86OLp4Ln8h1bd-308" value="Generic Group" style="outlineConnect=0;gradientColor=none;html=1;whiteSpace=wrap;fontSize=12;fontStyle=0;strokeColor=#CCFF99;fillColor=none;verticalAlign=top;align=center;fontColor=#879196;dashed=1;spacingTop=3;strokeWidth=3;" parent="1" vertex="1">
          <mxGeometry x="-3107.5" y="1648.5" width="863.5" height="408.5" as="geometry" />
        </mxCell>
        <mxCell id="TRhLqOV86OLp4Ln8h1bd-283" value="Generic Group" style="outlineConnect=0;gradientColor=none;html=1;whiteSpace=wrap;fontSize=12;fontStyle=0;strokeColor=#CCFF99;fillColor=none;verticalAlign=top;align=center;fontColor=#879196;dashed=1;spacingTop=3;strokeWidth=3;" parent="1" vertex="1">
          <mxGeometry x="-3102" y="1034" width="858" height="495" as="geometry" />
        </mxCell>
        <mxCell id="TRhLqOV86OLp4Ln8h1bd-280" value="Generic Group" style="outlineConnect=0;gradientColor=none;html=1;whiteSpace=wrap;fontSize=12;fontStyle=0;strokeColor=#CCFF99;fillColor=none;verticalAlign=top;align=center;fontColor=#879196;dashed=1;spacingTop=3;strokeWidth=3;" parent="1" vertex="1">
          <mxGeometry x="-3102" y="583" width="869" height="363" as="geometry" />
        </mxCell>
        <mxCell id="TRhLqOV86OLp4Ln8h1bd-1" value="VPC" style="points=[[0,0],[0.25,0],[0.5,0],[0.75,0],[1,0],[1,0.25],[1,0.5],[1,0.75],[1,1],[0.75,1],[0.5,1],[0.25,1],[0,1],[0,0.75],[0,0.5],[0,0.25]];outlineConnect=0;gradientColor=none;html=1;whiteSpace=wrap;fontSize=12;fontStyle=0;container=1;pointerEvents=0;collapsible=0;recursiveResize=0;shape=mxgraph.aws4.group;grIcon=mxgraph.aws4.group_vpc2;strokeColor=#8C4FFF;fillColor=none;verticalAlign=top;align=left;spacingLeft=30;fontColor=#AAB7B8;dashed=0;strokeWidth=3;" parent="1" vertex="1">
          <mxGeometry x="176" y="40" width="1276" height="928" as="geometry" />
        </mxCell>
        <mxCell id="TRhLqOV86OLp4Ln8h1bd-2" value="Availability zone" style="sketch=0;outlineConnect=0;gradientColor=none;html=1;whiteSpace=wrap;fontSize=12;fontStyle=0;shape=mxgraph.aws4.group;grIcon=mxgraph.aws4.group_availability_zone;strokeColor=#E8E8E8;fillColor=none;verticalAlign=top;align=left;spacingLeft=30;fontColor=#E8E8E8;dashed=1;rotation=0;strokeWidth=3;" parent="TRhLqOV86OLp4Ln8h1bd-1" vertex="1">
          <mxGeometry x="64" y="48" width="1179" height="205" as="geometry" />
        </mxCell>
        <mxCell id="TRhLqOV86OLp4Ln8h1bd-6" value="" style="outlineConnect=0;dashed=0;verticalLabelPosition=bottom;verticalAlign=top;align=center;html=1;shape=mxgraph.aws3.application_load_balancer;fillColor=#F58536;gradientColor=none;" parent="TRhLqOV86OLp4Ln8h1bd-1" vertex="1">
          <mxGeometry x="613" y="268.87" width="66" height="63.75" as="geometry" />
        </mxCell>
        <mxCell id="TRhLqOV86OLp4Ln8h1bd-8" value="Public subnet" style="points=[[0,0],[0.25,0],[0.5,0],[0.75,0],[1,0],[1,0.25],[1,0.5],[1,0.75],[1,1],[0.75,1],[0.5,1],[0.25,1],[0,1],[0,0.75],[0,0.5],[0,0.25]];outlineConnect=0;html=1;whiteSpace=wrap;fontSize=12;fontStyle=0;container=1;pointerEvents=0;collapsible=0;recursiveResize=0;shape=mxgraph.aws4.group;grIcon=mxgraph.aws4.group_security_group;grStroke=0;verticalAlign=top;align=left;spacingLeft=30;dashed=0;fillColor=#1ba1e2;strokeColor=#006EAF;fontColor=#ffffff;" parent="TRhLqOV86OLp4Ln8h1bd-1" vertex="1">
          <mxGeometry x="880" y="82.25" width="352" height="136.5" as="geometry" />
        </mxCell>
        <mxCell id="TRhLqOV86OLp4Ln8h1bd-47" value="Availability zone" style="sketch=0;outlineConnect=0;gradientColor=none;html=1;whiteSpace=wrap;fontSize=12;fontStyle=0;shape=mxgraph.aws4.group;grIcon=mxgraph.aws4.group_availability_zone;strokeColor=#E8E8E8;fillColor=none;verticalAlign=top;align=left;spacingLeft=30;fontColor=#E8E8E8;dashed=1;rotation=0;strokeWidth=3;" parent="TRhLqOV86OLp4Ln8h1bd-1" vertex="1">
          <mxGeometry x="64" y="642" width="1179" height="205" as="geometry" />
        </mxCell>
        <mxCell id="TRhLqOV86OLp4Ln8h1bd-52" value="Public subnet" style="points=[[0,0],[0.25,0],[0.5,0],[0.75,0],[1,0],[1,0.25],[1,0.5],[1,0.75],[1,1],[0.75,1],[0.5,1],[0.25,1],[0,1],[0,0.75],[0,0.5],[0,0.25]];outlineConnect=0;html=1;whiteSpace=wrap;fontSize=12;fontStyle=0;container=1;pointerEvents=0;collapsible=0;recursiveResize=0;shape=mxgraph.aws4.group;grIcon=mxgraph.aws4.group_security_group;grStroke=0;verticalAlign=top;align=left;spacingLeft=30;dashed=0;fillColor=#1ba1e2;strokeColor=#006EAF;fontColor=#ffffff;" parent="TRhLqOV86OLp4Ln8h1bd-1" vertex="1">
          <mxGeometry x="885.5" y="679.12" width="341" height="130.75" as="geometry" />
        </mxCell>
        <mxCell id="TRhLqOV86OLp4Ln8h1bd-56" value="Private subnet" style="points=[[0,0],[0.25,0],[0.5,0],[0.75,0],[1,0],[1,0.25],[1,0.5],[1,0.75],[1,1],[0.75,1],[0.5,1],[0.25,1],[0,1],[0,0.75],[0,0.5],[0,0.25]];outlineConnect=0;html=1;whiteSpace=wrap;fontSize=12;fontStyle=0;container=1;pointerEvents=0;collapsible=0;recursiveResize=0;shape=mxgraph.aws4.group;grIcon=mxgraph.aws4.group_security_group;grStroke=0;verticalAlign=top;align=left;spacingLeft=30;dashed=0;" parent="TRhLqOV86OLp4Ln8h1bd-1" vertex="1">
          <mxGeometry x="104.5" y="84.25" width="324.5" height="146.75" as="geometry" />
        </mxCell>
        <mxCell id="TRhLqOV86OLp4Ln8h1bd-63" value="" style="sketch=0;points=[[0,0,0],[0.25,0,0],[0.5,0,0],[0.75,0,0],[1,0,0],[0,1,0],[0.25,1,0],[0.5,1,0],[0.75,1,0],[1,1,0],[0,0.25,0],[0,0.5,0],[0,0.75,0],[1,0.25,0],[1,0.5,0],[1,0.75,0]];outlineConnect=0;fontColor=#232F3E;fillColor=#7AA116;strokeColor=#ffffff;dashed=0;verticalLabelPosition=bottom;verticalAlign=top;align=center;html=1;fontSize=12;fontStyle=0;aspect=fixed;shape=mxgraph.aws4.resourceIcon;resIcon=mxgraph.aws4.fsx_for_windows_file_server;" parent="TRhLqOV86OLp4Ln8h1bd-56" vertex="1">
          <mxGeometry x="202.5" y="39.75" width="78" height="78" as="geometry" />
        </mxCell>
        <mxCell id="TRhLqOV86OLp4Ln8h1bd-15" value="Auto Scaling group" style="points=[[0,0],[0.25,0],[0.5,0],[0.75,0],[1,0],[1,0.25],[1,0.5],[1,0.75],[1,1],[0.75,1],[0.5,1],[0.25,1],[0,1],[0,0.75],[0,0.5],[0,0.25]];outlineConnect=0;gradientColor=none;html=1;whiteSpace=wrap;fontSize=12;fontStyle=0;container=1;pointerEvents=0;collapsible=0;recursiveResize=0;shape=mxgraph.aws4.groupCenter;grIcon=mxgraph.aws4.group_auto_scaling_group;grStroke=1;strokeColor=#D86613;fillColor=none;verticalAlign=top;align=center;fontColor=#D86613;dashed=1;spacingTop=25;" parent="TRhLqOV86OLp4Ln8h1bd-1" vertex="1">
          <mxGeometry x="1006.5" y="84.25" width="99" height="704" as="geometry" />
        </mxCell>
        <mxCell id="TRhLqOV86OLp4Ln8h1bd-14" value="" style="sketch=0;points=[[0,0,0],[0.25,0,0],[0.5,0,0],[0.75,0,0],[1,0,0],[0,1,0],[0.25,1,0],[0.5,1,0],[0.75,1,0],[1,1,0],[0,0.25,0],[0,0.5,0],[0,0.75,0],[1,0.25,0],[1,0.5,0],[1,0.75,0]];outlineConnect=0;fontColor=#232F3E;fillColor=#ED7100;strokeColor=#ffffff;dashed=0;verticalLabelPosition=bottom;verticalAlign=top;align=center;html=1;fontSize=12;fontStyle=0;aspect=fixed;shape=mxgraph.aws4.resourceIcon;resIcon=mxgraph.aws4.auto_scaling2;" parent="TRhLqOV86OLp4Ln8h1bd-15" vertex="1">
          <mxGeometry x="25.370000000000005" y="202" width="37" height="37" as="geometry" />
        </mxCell>
        <mxCell id="TRhLqOV86OLp4Ln8h1bd-82" value="" style="sketch=0;points=[[0,0,0],[0.25,0,0],[0.5,0,0],[0.75,0,0],[1,0,0],[0,1,0],[0.25,1,0],[0.5,1,0],[0.75,1,0],[1,1,0],[0,0.25,0],[0,0.5,0],[0,0.75,0],[1,0.25,0],[1,0.5,0],[1,0.75,0]];outlineConnect=0;fontColor=#232F3E;fillColor=#ED7100;strokeColor=#ffffff;dashed=0;verticalLabelPosition=bottom;verticalAlign=top;align=center;html=1;fontSize=12;fontStyle=0;aspect=fixed;shape=mxgraph.aws4.resourceIcon;resIcon=mxgraph.aws4.elastic_beanstalk;" parent="TRhLqOV86OLp4Ln8h1bd-15" vertex="1">
          <mxGeometry x="18.5" y="619" width="73" height="73" as="geometry" />
        </mxCell>
        <mxCell id="TRhLqOV86OLp4Ln8h1bd-238" value="" style="sketch=0;points=[[0,0,0],[0.25,0,0],[0.5,0,0],[0.75,0,0],[1,0,0],[0,1,0],[0.25,1,0],[0.5,1,0],[0.75,1,0],[1,1,0],[0,0.25,0],[0,0.5,0],[0,0.75,0],[1,0.25,0],[1,0.5,0],[1,0.75,0]];outlineConnect=0;fontColor=#232F3E;fillColor=#ED7100;strokeColor=#ffffff;dashed=0;verticalLabelPosition=bottom;verticalAlign=top;align=center;html=1;fontSize=12;fontStyle=0;aspect=fixed;shape=mxgraph.aws4.resourceIcon;resIcon=mxgraph.aws4.auto_scaling2;" parent="TRhLqOV86OLp4Ln8h1bd-15" vertex="1">
          <mxGeometry x="31" y="488" width="37" height="37" as="geometry" />
        </mxCell>
        <mxCell id="TRhLqOV86OLp4Ln8h1bd-26" value="" style="sketch=0;points=[[0,0,0],[0.25,0,0],[0.5,0,0],[0.75,0,0],[1,0,0],[0,1,0],[0.25,1,0],[0.5,1,0],[0.75,1,0],[1,1,0],[0,0.25,0],[0,0.5,0],[0,0.75,0],[1,0.25,0],[1,0.5,0],[1,0.75,0]];outlineConnect=0;fontColor=#232F3E;fillColor=#ED7100;strokeColor=#ffffff;dashed=0;verticalLabelPosition=bottom;verticalAlign=top;align=center;html=1;fontSize=12;fontStyle=0;aspect=fixed;shape=mxgraph.aws4.resourceIcon;resIcon=mxgraph.aws4.elastic_beanstalk;" parent="TRhLqOV86OLp4Ln8h1bd-15" vertex="1">
          <mxGeometry x="18.5" y="44" width="62" height="62" as="geometry" />
        </mxCell>
        <mxCell id="TRhLqOV86OLp4Ln8h1bd-83" value="" style="sketch=0;points=[[0,0,0],[0.25,0,0],[0.5,0,0],[0.75,0,0],[1,0,0],[0,1,0],[0.25,1,0],[0.5,1,0],[0.75,1,0],[1,1,0],[0,0.25,0],[0,0.5,0],[0,0.75,0],[1,0.25,0],[1,0.5,0],[1,0.75,0]];outlineConnect=0;fontColor=#232F3E;fillColor=#C925D1;strokeColor=#ffffff;dashed=0;verticalLabelPosition=bottom;verticalAlign=top;align=center;html=1;fontSize=12;fontStyle=0;aspect=fixed;shape=mxgraph.aws4.resourceIcon;resIcon=mxgraph.aws4.aurora;" parent="TRhLqOV86OLp4Ln8h1bd-1" vertex="1">
          <mxGeometry x="187" y="118.63" width="78" height="78" as="geometry" />
        </mxCell>
        <mxCell id="TRhLqOV86OLp4Ln8h1bd-119" value="" style="sketch=0;points=[[0,0,0],[0.25,0,0],[0.5,0,0],[0.75,0,0],[1,0,0],[0,1,0],[0.25,1,0],[0.5,1,0],[0.75,1,0],[1,1,0],[0,0.25,0],[0,0.5,0],[0,0.75,0],[1,0.25,0],[1,0.5,0],[1,0.75,0]];outlineConnect=0;fontColor=#232F3E;fillColor=#E7157B;strokeColor=#ffffff;dashed=0;verticalLabelPosition=bottom;verticalAlign=top;align=center;html=1;fontSize=12;fontStyle=0;aspect=fixed;shape=mxgraph.aws4.resourceIcon;resIcon=mxgraph.aws4.sqs;" parent="TRhLqOV86OLp4Ln8h1bd-1" vertex="1">
          <mxGeometry x="330" y="265.62" width="67" height="67" as="geometry" />
        </mxCell>
        <mxCell id="TRhLqOV86OLp4Ln8h1bd-239" value="Private subnet" style="points=[[0,0],[0.25,0],[0.5,0],[0.75,0],[1,0],[1,0.25],[1,0.5],[1,0.75],[1,1],[0.75,1],[0.5,1],[0.25,1],[0,1],[0,0.75],[0,0.5],[0,0.25]];outlineConnect=0;html=1;whiteSpace=wrap;fontSize=12;fontStyle=0;container=1;pointerEvents=0;collapsible=0;recursiveResize=0;shape=mxgraph.aws4.group;grIcon=mxgraph.aws4.group_security_group;grStroke=0;verticalAlign=top;align=left;spacingLeft=30;dashed=0;" parent="TRhLqOV86OLp4Ln8h1bd-1" vertex="1">
          <mxGeometry x="517" y="77" width="276" height="161.5" as="geometry" />
        </mxCell>
        <mxCell id="TRhLqOV86OLp4Ln8h1bd-240" value="" style="sketch=0;outlineConnect=0;fontColor=#232F3E;gradientColor=none;fillColor=#8C4FFF;strokeColor=none;dashed=0;verticalLabelPosition=bottom;verticalAlign=top;align=center;html=1;fontSize=12;fontStyle=0;aspect=fixed;pointerEvents=1;shape=mxgraph.aws4.transit_gateway_attachment;" parent="TRhLqOV86OLp4Ln8h1bd-239" vertex="1">
          <mxGeometry x="77" y="37" width="84" height="84" as="geometry" />
        </mxCell>
        <mxCell id="TRhLqOV86OLp4Ln8h1bd-243" value="Private subnet" style="points=[[0,0],[0.25,0],[0.5,0],[0.75,0],[1,0],[1,0.25],[1,0.5],[1,0.75],[1,1],[0.75,1],[0.5,1],[0.25,1],[0,1],[0,0.75],[0,0.5],[0,0.25]];outlineConnect=0;html=1;whiteSpace=wrap;fontSize=12;fontStyle=0;container=1;pointerEvents=0;collapsible=0;recursiveResize=0;shape=mxgraph.aws4.group;grIcon=mxgraph.aws4.group_security_group;grStroke=0;verticalAlign=top;align=left;spacingLeft=30;dashed=0;" parent="TRhLqOV86OLp4Ln8h1bd-1" vertex="1">
          <mxGeometry x="539" y="676.37" width="276" height="133.5" as="geometry" />
        </mxCell>
        <mxCell id="TRhLqOV86OLp4Ln8h1bd-244" value="" style="sketch=0;outlineConnect=0;fontColor=#232F3E;gradientColor=none;fillColor=#8C4FFF;strokeColor=none;dashed=0;verticalLabelPosition=bottom;verticalAlign=top;align=center;html=1;fontSize=12;fontStyle=0;aspect=fixed;pointerEvents=1;shape=mxgraph.aws4.transit_gateway_attachment;" parent="TRhLqOV86OLp4Ln8h1bd-243" vertex="1">
          <mxGeometry x="82.37" y="27.879999999999995" width="84" height="84" as="geometry" />
        </mxCell>
        <mxCell id="TRhLqOV86OLp4Ln8h1bd-49" value="Availability zone" style="sketch=0;outlineConnect=0;gradientColor=none;html=1;whiteSpace=wrap;fontSize=12;fontStyle=0;shape=mxgraph.aws4.group;grIcon=mxgraph.aws4.group_availability_zone;strokeColor=#E8E8E8;fillColor=none;verticalAlign=top;align=left;spacingLeft=30;fontColor=#E8E8E8;dashed=1;rotation=0;strokeWidth=3;" parent="TRhLqOV86OLp4Ln8h1bd-1" vertex="1">
          <mxGeometry x="65.5" y="389" width="1179" height="205" as="geometry" />
        </mxCell>
        <mxCell id="TRhLqOV86OLp4Ln8h1bd-48" value="Public subnet" style="points=[[0,0],[0.25,0],[0.5,0],[0.75,0],[1,0],[1,0.25],[1,0.5],[1,0.75],[1,1],[0.75,1],[0.5,1],[0.25,1],[0,1],[0,0.75],[0,0.5],[0,0.25]];outlineConnect=0;html=1;whiteSpace=wrap;fontSize=12;fontStyle=0;container=1;pointerEvents=0;collapsible=0;recursiveResize=0;shape=mxgraph.aws4.group;grIcon=mxgraph.aws4.group_security_group;grStroke=0;verticalAlign=top;align=left;spacingLeft=30;dashed=0;fillColor=#1ba1e2;strokeColor=#006EAF;fontColor=#ffffff;" parent="TRhLqOV86OLp4Ln8h1bd-1" vertex="1">
          <mxGeometry x="881.5" y="415.5" width="341" height="136.5" as="geometry" />
        </mxCell>
        <mxCell id="TRhLqOV86OLp4Ln8h1bd-53" value="Private subnet" style="points=[[0,0],[0.25,0],[0.5,0],[0.75,0],[1,0],[1,0.25],[1,0.5],[1,0.75],[1,1],[0.75,1],[0.5,1],[0.25,1],[0,1],[0,0.75],[0,0.5],[0,0.25]];outlineConnect=0;html=1;whiteSpace=wrap;fontSize=12;fontStyle=0;container=1;pointerEvents=0;collapsible=0;recursiveResize=0;shape=mxgraph.aws4.group;grIcon=mxgraph.aws4.group_security_group;grStroke=0;verticalAlign=top;align=left;spacingLeft=30;dashed=0;" parent="TRhLqOV86OLp4Ln8h1bd-1" vertex="1">
          <mxGeometry x="89.5" y="443" width="352" height="130" as="geometry" />
        </mxCell>
        <mxCell id="TRhLqOV86OLp4Ln8h1bd-84" value="" style="sketch=0;points=[[0,0,0],[0.25,0,0],[0.5,0,0],[0.75,0,0],[1,0,0],[0,1,0],[0.25,1,0],[0.5,1,0],[0.75,1,0],[1,1,0],[0,0.25,0],[0,0.5,0],[0,0.75,0],[1,0.25,0],[1,0.5,0],[1,0.75,0]];outlineConnect=0;fontColor=#232F3E;fillColor=#C925D1;strokeColor=#ffffff;dashed=0;verticalLabelPosition=bottom;verticalAlign=top;align=center;html=1;fontSize=12;fontStyle=0;aspect=fixed;shape=mxgraph.aws4.resourceIcon;resIcon=mxgraph.aws4.aurora;" parent="TRhLqOV86OLp4Ln8h1bd-53" vertex="1">
          <mxGeometry x="99" y="29.5" width="78" height="78" as="geometry" />
        </mxCell>
        <mxCell id="TRhLqOV86OLp4Ln8h1bd-27" value="" style="sketch=0;points=[[0,0,0],[0.25,0,0],[0.5,0,0],[0.75,0,0],[1,0,0],[0,1,0],[0.25,1,0],[0.5,1,0],[0.75,1,0],[1,1,0],[0,0.25,0],[0,0.5,0],[0,0.75,0],[1,0.25,0],[1,0.5,0],[1,0.75,0]];outlineConnect=0;fontColor=#232F3E;fillColor=#ED7100;strokeColor=#ffffff;dashed=0;verticalLabelPosition=bottom;verticalAlign=top;align=center;html=1;fontSize=12;fontStyle=0;aspect=fixed;shape=mxgraph.aws4.resourceIcon;resIcon=mxgraph.aws4.elastic_beanstalk;" parent="TRhLqOV86OLp4Ln8h1bd-1" vertex="1">
          <mxGeometry x="1026.5" y="447.25" width="73" height="73" as="geometry" />
        </mxCell>
        <mxCell id="TRhLqOV86OLp4Ln8h1bd-65" value="" style="sketch=0;points=[[0,0,0],[0.25,0,0],[0.5,0,0],[0.75,0,0],[1,0,0],[0,1,0],[0.25,1,0],[0.5,1,0],[0.75,1,0],[1,1,0],[0,0.25,0],[0,0.5,0],[0,0.75,0],[1,0.25,0],[1,0.5,0],[1,0.75,0]];outlineConnect=0;fontColor=#232F3E;fillColor=#7AA116;strokeColor=#ffffff;dashed=0;verticalLabelPosition=bottom;verticalAlign=top;align=center;html=1;fontSize=12;fontStyle=0;aspect=fixed;shape=mxgraph.aws4.resourceIcon;resIcon=mxgraph.aws4.fsx_for_windows_file_server;" parent="TRhLqOV86OLp4Ln8h1bd-1" vertex="1">
          <mxGeometry x="320.5" y="474" width="78" height="78" as="geometry" />
        </mxCell>
        <mxCell id="TRhLqOV86OLp4Ln8h1bd-241" value="Private subnet" style="points=[[0,0],[0.25,0],[0.5,0],[0.75,0],[1,0],[1,0.25],[1,0.5],[1,0.75],[1,1],[0.75,1],[0.5,1],[0.25,1],[0,1],[0,0.75],[0,0.5],[0,0.25]];outlineConnect=0;html=1;whiteSpace=wrap;fontSize=12;fontStyle=0;container=1;pointerEvents=0;collapsible=0;recursiveResize=0;shape=mxgraph.aws4.group;grIcon=mxgraph.aws4.group_security_group;grStroke=0;verticalAlign=top;align=left;spacingLeft=30;dashed=0;" parent="TRhLqOV86OLp4Ln8h1bd-1" vertex="1">
          <mxGeometry x="518.5" y="443.5" width="276" height="133.5" as="geometry" />
        </mxCell>
        <mxCell id="TRhLqOV86OLp4Ln8h1bd-242" value="" style="sketch=0;outlineConnect=0;fontColor=#232F3E;gradientColor=none;fillColor=#8C4FFF;strokeColor=none;dashed=0;verticalLabelPosition=bottom;verticalAlign=top;align=center;html=1;fontSize=12;fontStyle=0;aspect=fixed;pointerEvents=1;shape=mxgraph.aws4.transit_gateway_attachment;" parent="TRhLqOV86OLp4Ln8h1bd-1" vertex="1">
          <mxGeometry x="614.5" y="472.5" width="84" height="84" as="geometry" />
        </mxCell>
        <mxCell id="TRhLqOV86OLp4Ln8h1bd-17" value="" style="outlineConnect=0;dashed=0;verticalLabelPosition=bottom;verticalAlign=top;align=center;html=1;shape=mxgraph.aws3.database_migration_service;fillColor=#2E73B8;gradientColor=none;" parent="1" vertex="1">
          <mxGeometry x="-1364" y="1386" width="330" height="473" as="geometry" />
        </mxCell>
        <mxCell id="TRhLqOV86OLp4Ln8h1bd-64" value="Private subnet" style="points=[[0,0],[0.25,0],[0.5,0],[0.75,0],[1,0],[1,0.25],[1,0.5],[1,0.75],[1,1],[0.75,1],[0.5,1],[0.25,1],[0,1],[0,0.75],[0,0.5],[0,0.25]];outlineConnect=0;html=1;whiteSpace=wrap;fontSize=12;fontStyle=0;container=1;pointerEvents=0;collapsible=0;recursiveResize=0;shape=mxgraph.aws4.group;grIcon=mxgraph.aws4.group_security_group;grStroke=0;verticalAlign=top;align=left;spacingLeft=30;dashed=0;" parent="1" vertex="1">
          <mxGeometry x="275" y="718.5" width="341" height="130" as="geometry" />
        </mxCell>
        <mxCell id="TRhLqOV86OLp4Ln8h1bd-68" value="" style="image;aspect=fixed;html=1;points=[];align=center;fontSize=12;image=img/lib/azure2/other/Elastic_SAN.svg;" parent="1" vertex="1">
          <mxGeometry x="-2959" y="242" width="176" height="176" as="geometry" />
        </mxCell>
        <mxCell id="TRhLqOV86OLp4Ln8h1bd-71" value="" style="swimlane;startSize=0;rotation=89;" parent="1" vertex="1">
          <mxGeometry x="-2596" y="132" width="253" height="396" as="geometry" />
        </mxCell>
        <mxCell id="TRhLqOV86OLp4Ln8h1bd-70" value="" style="image;aspect=fixed;html=1;points=[];align=center;fontSize=12;image=img/lib/azure2/databases/SQL_Server.svg;" parent="TRhLqOV86OLp4Ln8h1bd-71" vertex="1">
          <mxGeometry x="-33" y="153" width="90" height="90" as="geometry" />
        </mxCell>
        <mxCell id="TRhLqOV86OLp4Ln8h1bd-86" value="" style="outlineConnect=0;dashed=0;verticalLabelPosition=bottom;verticalAlign=top;align=center;html=1;shape=mxgraph.aws3.cloudformation;fillColor=#759C3E;gradientColor=none;" parent="1" vertex="1">
          <mxGeometry x="2244" y="-1298" width="308" height="451" as="geometry" />
        </mxCell>
        <mxCell id="TRhLqOV86OLp4Ln8h1bd-87" value="" style="sketch=0;outlineConnect=0;fontColor=#232F3E;gradientColor=none;fillColor=#E7157B;strokeColor=none;dashed=0;verticalLabelPosition=bottom;verticalAlign=top;align=center;html=1;fontSize=12;fontStyle=0;aspect=fixed;pointerEvents=1;shape=mxgraph.aws4.template;" parent="1" vertex="1">
          <mxGeometry x="2607" y="-1166" width="142" height="170.4" as="geometry" />
        </mxCell>
        <mxCell id="TRhLqOV86OLp4Ln8h1bd-91" value="VPC" style="points=[[0,0],[0.25,0],[0.5,0],[0.75,0],[1,0],[1,0.25],[1,0.5],[1,0.75],[1,1],[0.75,1],[0.5,1],[0.25,1],[0,1],[0,0.75],[0,0.5],[0,0.25]];outlineConnect=0;gradientColor=none;html=1;whiteSpace=wrap;fontSize=12;fontStyle=0;container=1;pointerEvents=0;collapsible=0;recursiveResize=0;shape=mxgraph.aws4.group;grIcon=mxgraph.aws4.group_vpc2;strokeColor=#8C4FFF;fillColor=none;verticalAlign=top;align=left;spacingLeft=30;fontColor=#AAB7B8;dashed=0;strokeWidth=3;" parent="1" vertex="1">
          <mxGeometry x="132" y="1342" width="1276" height="928" as="geometry" />
        </mxCell>
        <mxCell id="TRhLqOV86OLp4Ln8h1bd-92" value="Availability zone" style="sketch=0;outlineConnect=0;gradientColor=none;html=1;whiteSpace=wrap;fontSize=12;fontStyle=0;shape=mxgraph.aws4.group;grIcon=mxgraph.aws4.group_availability_zone;strokeColor=#E8E8E8;fillColor=none;verticalAlign=top;align=left;spacingLeft=30;fontColor=#E8E8E8;dashed=1;rotation=0;strokeWidth=3;" parent="TRhLqOV86OLp4Ln8h1bd-91" vertex="1">
          <mxGeometry x="64" y="48" width="1146" height="205" as="geometry" />
        </mxCell>
        <mxCell id="TRhLqOV86OLp4Ln8h1bd-93" value="" style="outlineConnect=0;dashed=0;verticalLabelPosition=bottom;verticalAlign=top;align=center;html=1;shape=mxgraph.aws3.application_load_balancer;fillColor=#F58536;gradientColor=none;" parent="TRhLqOV86OLp4Ln8h1bd-91" vertex="1">
          <mxGeometry x="1111" y="395.5" width="88" height="87.25" as="geometry" />
        </mxCell>
        <mxCell id="TRhLqOV86OLp4Ln8h1bd-94" value="Public subnet" style="points=[[0,0],[0.25,0],[0.5,0],[0.75,0],[1,0],[1,0.25],[1,0.5],[1,0.75],[1,1],[0.75,1],[0.5,1],[0.25,1],[0,1],[0,0.75],[0,0.5],[0,0.25]];outlineConnect=0;html=1;whiteSpace=wrap;fontSize=12;fontStyle=0;container=1;pointerEvents=0;collapsible=0;recursiveResize=0;shape=mxgraph.aws4.group;grIcon=mxgraph.aws4.group_security_group;grStroke=0;verticalAlign=top;align=left;spacingLeft=30;dashed=0;fillColor=#1ba1e2;strokeColor=#006EAF;fontColor=#ffffff;" parent="TRhLqOV86OLp4Ln8h1bd-91" vertex="1">
          <mxGeometry x="814" y="82.25" width="385" height="136.5" as="geometry" />
        </mxCell>
        <mxCell id="TRhLqOV86OLp4Ln8h1bd-112" value="" style="sketch=0;points=[[0,0,0],[0.25,0,0],[0.5,0,0],[0.75,0,0],[1,0,0],[0,1,0],[0.25,1,0],[0.5,1,0],[0.75,1,0],[1,1,0],[0,0.25,0],[0,0.5,0],[0,0.75,0],[1,0.25,0],[1,0.5,0],[1,0.75,0]];outlineConnect=0;fontColor=#232F3E;fillColor=#7AA116;strokeColor=#ffffff;dashed=0;verticalLabelPosition=bottom;verticalAlign=top;align=center;html=1;fontSize=12;fontStyle=0;aspect=fixed;shape=mxgraph.aws4.resourceIcon;resIcon=mxgraph.aws4.elastic_block_store;" parent="TRhLqOV86OLp4Ln8h1bd-94" vertex="1">
          <mxGeometry x="10" y="40" width="78" height="78" as="geometry" />
        </mxCell>
        <mxCell id="TRhLqOV86OLp4Ln8h1bd-95" value="Availability zone" style="sketch=0;outlineConnect=0;gradientColor=none;html=1;whiteSpace=wrap;fontSize=12;fontStyle=0;shape=mxgraph.aws4.group;grIcon=mxgraph.aws4.group_availability_zone;strokeColor=#E8E8E8;fillColor=none;verticalAlign=top;align=left;spacingLeft=30;fontColor=#E8E8E8;dashed=1;rotation=0;strokeWidth=3;" parent="TRhLqOV86OLp4Ln8h1bd-91" vertex="1">
          <mxGeometry x="77" y="572" width="1122" height="220" as="geometry" />
        </mxCell>
        <mxCell id="TRhLqOV86OLp4Ln8h1bd-97" value="Public subnet" style="points=[[0,0],[0.25,0],[0.5,0],[0.75,0],[1,0],[1,0.25],[1,0.5],[1,0.75],[1,1],[0.75,1],[0.5,1],[0.25,1],[0,1],[0,0.75],[0,0.5],[0,0.25]];outlineConnect=0;html=1;whiteSpace=wrap;fontSize=12;fontStyle=0;container=1;pointerEvents=0;collapsible=0;recursiveResize=0;shape=mxgraph.aws4.group;grIcon=mxgraph.aws4.group_security_group;grStroke=0;verticalAlign=top;align=left;spacingLeft=30;dashed=0;fillColor=#1ba1e2;strokeColor=#006EAF;fontColor=#ffffff;" parent="TRhLqOV86OLp4Ln8h1bd-91" vertex="1">
          <mxGeometry x="803" y="616" width="385" height="132" as="geometry" />
        </mxCell>
        <mxCell id="TRhLqOV86OLp4Ln8h1bd-100" value="Private subnet" style="points=[[0,0],[0.25,0],[0.5,0],[0.75,0],[1,0],[1,0.25],[1,0.5],[1,0.75],[1,1],[0.75,1],[0.5,1],[0.25,1],[0,1],[0,0.75],[0,0.5],[0,0.25]];outlineConnect=0;html=1;whiteSpace=wrap;fontSize=12;fontStyle=0;container=1;pointerEvents=0;collapsible=0;recursiveResize=0;shape=mxgraph.aws4.group;grIcon=mxgraph.aws4.group_security_group;grStroke=0;verticalAlign=top;align=left;spacingLeft=30;dashed=0;" parent="TRhLqOV86OLp4Ln8h1bd-91" vertex="1">
          <mxGeometry x="104.5" y="627" width="313.5" height="130" as="geometry" />
        </mxCell>
        <mxCell id="TRhLqOV86OLp4Ln8h1bd-111" value="" style="sketch=0;points=[[0,0,0],[0.25,0,0],[0.5,0,0],[0.75,0,0],[1,0,0],[0,1,0],[0.25,1,0],[0.5,1,0],[0.75,1,0],[1,1,0],[0,0.25,0],[0,0.5,0],[0,0.75,0],[1,0.25,0],[1,0.5,0],[1,0.75,0]];outlineConnect=0;fontColor=#232F3E;fillColor=#C925D1;strokeColor=#ffffff;dashed=0;verticalLabelPosition=bottom;verticalAlign=top;align=center;html=1;fontSize=12;fontStyle=0;aspect=fixed;shape=mxgraph.aws4.resourceIcon;resIcon=mxgraph.aws4.aurora;" parent="TRhLqOV86OLp4Ln8h1bd-100" vertex="1">
          <mxGeometry x="66" y="26" width="78" height="78" as="geometry" />
        </mxCell>
        <mxCell id="TRhLqOV86OLp4Ln8h1bd-103" value="Private subnet" style="points=[[0,0],[0.25,0],[0.5,0],[0.75,0],[1,0],[1,0.25],[1,0.5],[1,0.75],[1,1],[0.75,1],[0.5,1],[0.25,1],[0,1],[0,0.75],[0,0.5],[0,0.25]];outlineConnect=0;html=1;whiteSpace=wrap;fontSize=12;fontStyle=0;container=1;pointerEvents=0;collapsible=0;recursiveResize=0;shape=mxgraph.aws4.group;grIcon=mxgraph.aws4.group_security_group;grStroke=0;verticalAlign=top;align=left;spacingLeft=30;dashed=0;" parent="TRhLqOV86OLp4Ln8h1bd-91" vertex="1">
          <mxGeometry x="82.5" y="82.25" width="335.5" height="146.75" as="geometry" />
        </mxCell>
        <mxCell id="TRhLqOV86OLp4Ln8h1bd-110" value="" style="sketch=0;points=[[0,0,0],[0.25,0,0],[0.5,0,0],[0.75,0,0],[1,0,0],[0,1,0],[0.25,1,0],[0.5,1,0],[0.75,1,0],[1,1,0],[0,0.25,0],[0,0.5,0],[0,0.75,0],[1,0.25,0],[1,0.5,0],[1,0.75,0]];outlineConnect=0;fontColor=#232F3E;fillColor=#C925D1;strokeColor=#ffffff;dashed=0;verticalLabelPosition=bottom;verticalAlign=top;align=center;html=1;fontSize=12;fontStyle=0;aspect=fixed;shape=mxgraph.aws4.resourceIcon;resIcon=mxgraph.aws4.aurora;" parent="TRhLqOV86OLp4Ln8h1bd-103" vertex="1">
          <mxGeometry x="70.5" y="27.25" width="78" height="78" as="geometry" />
        </mxCell>
        <mxCell id="TRhLqOV86OLp4Ln8h1bd-105" value="Auto Scaling group" style="points=[[0,0],[0.25,0],[0.5,0],[0.75,0],[1,0],[1,0.25],[1,0.5],[1,0.75],[1,1],[0.75,1],[0.5,1],[0.25,1],[0,1],[0,0.75],[0,0.5],[0,0.25]];outlineConnect=0;gradientColor=none;html=1;whiteSpace=wrap;fontSize=12;fontStyle=0;container=1;pointerEvents=0;collapsible=0;recursiveResize=0;shape=mxgraph.aws4.groupCenter;grIcon=mxgraph.aws4.group_auto_scaling_group;grStroke=1;strokeColor=#D86613;fillColor=none;verticalAlign=top;align=center;fontColor=#D86613;dashed=1;spacingTop=25;strokeWidth=3;" parent="TRhLqOV86OLp4Ln8h1bd-91" vertex="1">
          <mxGeometry x="935" y="88" width="110" height="649" as="geometry" />
        </mxCell>
        <mxCell id="TRhLqOV86OLp4Ln8h1bd-107" value="" style="sketch=0;points=[[0,0,0],[0.25,0,0],[0.5,0,0],[0.75,0,0],[1,0,0],[0,1,0],[0.25,1,0],[0.5,1,0],[0.75,1,0],[1,1,0],[0,0.25,0],[0,0.5,0],[0,0.75,0],[1,0.25,0],[1,0.5,0],[1,0.75,0]];outlineConnect=0;fontColor=#232F3E;fillColor=#ED7100;strokeColor=#ffffff;dashed=0;verticalLabelPosition=bottom;verticalAlign=top;align=center;html=1;fontSize=12;fontStyle=0;aspect=fixed;shape=mxgraph.aws4.resourceIcon;resIcon=mxgraph.aws4.auto_scaling2;" parent="TRhLqOV86OLp4Ln8h1bd-105" vertex="1">
          <mxGeometry x="29.000000000000004" y="319" width="37" height="37" as="geometry" />
        </mxCell>
        <mxCell id="TRhLqOV86OLp4Ln8h1bd-81" value="" style="sketch=0;outlineConnect=0;fontColor=#232F3E;gradientColor=none;fillColor=#7AA116;strokeColor=none;dashed=0;verticalLabelPosition=bottom;verticalAlign=top;align=center;html=1;fontSize=12;fontStyle=0;aspect=fixed;pointerEvents=1;shape=mxgraph.aws4.elastic_file_system_standard;" parent="TRhLqOV86OLp4Ln8h1bd-91" vertex="1">
          <mxGeometry x="176" y="364" width="99" height="99" as="geometry" />
        </mxCell>
        <mxCell id="TRhLqOV86OLp4Ln8h1bd-113" value="" style="sketch=0;points=[[0,0,0],[0.25,0,0],[0.5,0,0],[0.75,0,0],[1,0,0],[0,1,0],[0.25,1,0],[0.5,1,0],[0.75,1,0],[1,1,0],[0,0.25,0],[0,0.5,0],[0,0.75,0],[1,0.25,0],[1,0.5,0],[1,0.75,0]];outlineConnect=0;fontColor=#232F3E;fillColor=#7AA116;strokeColor=#ffffff;dashed=0;verticalLabelPosition=bottom;verticalAlign=top;align=center;html=1;fontSize=12;fontStyle=0;aspect=fixed;shape=mxgraph.aws4.resourceIcon;resIcon=mxgraph.aws4.elastic_block_store;" parent="TRhLqOV86OLp4Ln8h1bd-91" vertex="1">
          <mxGeometry x="814" y="653" width="78" height="78" as="geometry" />
        </mxCell>
        <mxCell id="TRhLqOV86OLp4Ln8h1bd-118" value="" style="sketch=0;points=[[0,0,0],[0.25,0,0],[0.5,0,0],[0.75,0,0],[1,0,0],[0,1,0],[0.25,1,0],[0.5,1,0],[0.75,1,0],[1,1,0],[0,0.25,0],[0,0.5,0],[0,0.75,0],[1,0.25,0],[1,0.5,0],[1,0.75,0]];outlineConnect=0;fontColor=#232F3E;fillColor=#E7157B;strokeColor=#ffffff;dashed=0;verticalLabelPosition=bottom;verticalAlign=top;align=center;html=1;fontSize=12;fontStyle=0;aspect=fixed;shape=mxgraph.aws4.resourceIcon;resIcon=mxgraph.aws4.sqs;" parent="TRhLqOV86OLp4Ln8h1bd-91" vertex="1">
          <mxGeometry x="407" y="374.5" width="78" height="78" as="geometry" />
        </mxCell>
        <mxCell id="TRhLqOV86OLp4Ln8h1bd-104" value="" style="sketch=0;points=[[0,0,0],[0.25,0,0],[0.5,0,0],[0.75,0,0],[1,0,0],[0,1,0],[0.25,1,0],[0.5,1,0],[0.75,1,0],[1,1,0],[0,0.25,0],[0,0.5,0],[0,0.75,0],[1,0.25,0],[1,0.5,0],[1,0.75,0]];outlineConnect=0;fontColor=#232F3E;fillColor=#ED7100;strokeColor=#ffffff;dashed=0;verticalLabelPosition=bottom;verticalAlign=top;align=center;html=1;fontSize=12;fontStyle=0;aspect=fixed;shape=mxgraph.aws4.resourceIcon;resIcon=mxgraph.aws4.elastic_beanstalk;" parent="TRhLqOV86OLp4Ln8h1bd-91" vertex="1">
          <mxGeometry x="959" y="143" width="62" height="62" as="geometry" />
        </mxCell>
        <mxCell id="TRhLqOV86OLp4Ln8h1bd-106" value="" style="sketch=0;points=[[0,0,0],[0.25,0,0],[0.5,0,0],[0.75,0,0],[1,0,0],[0,1,0],[0.25,1,0],[0.5,1,0],[0.75,1,0],[1,1,0],[0,0.25,0],[0,0.5,0],[0,0.75,0],[1,0.25,0],[1,0.5,0],[1,0.75,0]];outlineConnect=0;fontColor=#232F3E;fillColor=#ED7100;strokeColor=#ffffff;dashed=0;verticalLabelPosition=bottom;verticalAlign=top;align=center;html=1;fontSize=12;fontStyle=0;aspect=fixed;shape=mxgraph.aws4.resourceIcon;resIcon=mxgraph.aws4.elastic_beanstalk;" parent="TRhLqOV86OLp4Ln8h1bd-91" vertex="1">
          <mxGeometry x="959" y="638" width="73" height="73" as="geometry" />
        </mxCell>
        <mxCell id="TRhLqOV86OLp4Ln8h1bd-247" value="Private subnet" style="points=[[0,0],[0.25,0],[0.5,0],[0.75,0],[1,0],[1,0.25],[1,0.5],[1,0.75],[1,1],[0.75,1],[0.5,1],[0.25,1],[0,1],[0,0.75],[0,0.5],[0,0.25]];outlineConnect=0;html=1;whiteSpace=wrap;fontSize=12;fontStyle=0;container=1;pointerEvents=0;collapsible=0;recursiveResize=0;shape=mxgraph.aws4.group;grIcon=mxgraph.aws4.group_security_group;grStroke=0;verticalAlign=top;align=left;spacingLeft=30;dashed=0;" parent="TRhLqOV86OLp4Ln8h1bd-91" vertex="1">
          <mxGeometry x="451" y="82.25" width="335.5" height="146.75" as="geometry" />
        </mxCell>
        <mxCell id="TRhLqOV86OLp4Ln8h1bd-249" value="" style="sketch=0;outlineConnect=0;fontColor=#232F3E;gradientColor=none;fillColor=#8C4FFF;strokeColor=none;dashed=0;verticalLabelPosition=bottom;verticalAlign=top;align=center;html=1;fontSize=12;fontStyle=0;aspect=fixed;pointerEvents=1;shape=mxgraph.aws4.transit_gateway_attachment;" parent="TRhLqOV86OLp4Ln8h1bd-247" vertex="1">
          <mxGeometry x="98.86999999999989" y="15.61999999999989" width="115.5" height="115.5" as="geometry" />
        </mxCell>
        <mxCell id="TRhLqOV86OLp4Ln8h1bd-250" value="" style="sketch=0;outlineConnect=0;fontColor=#232F3E;gradientColor=none;fillColor=#8C4FFF;strokeColor=none;dashed=0;verticalLabelPosition=bottom;verticalAlign=top;align=center;html=1;fontSize=12;fontStyle=0;aspect=fixed;pointerEvents=1;shape=mxgraph.aws4.transit_gateway_attachment;" parent="TRhLqOV86OLp4Ln8h1bd-91" vertex="1">
          <mxGeometry x="533.4999999999999" y="638" width="115.5" height="115.5" as="geometry" />
        </mxCell>
        <mxCell id="TRhLqOV86OLp4Ln8h1bd-251" value="Private subnet" style="points=[[0,0],[0.25,0],[0.5,0],[0.75,0],[1,0],[1,0.25],[1,0.5],[1,0.75],[1,1],[0.75,1],[0.5,1],[0.25,1],[0,1],[0,0.75],[0,0.5],[0,0.25]];outlineConnect=0;html=1;whiteSpace=wrap;fontSize=12;fontStyle=0;container=1;pointerEvents=0;collapsible=0;recursiveResize=0;shape=mxgraph.aws4.group;grIcon=mxgraph.aws4.group_security_group;grStroke=0;verticalAlign=top;align=left;spacingLeft=30;dashed=0;" parent="TRhLqOV86OLp4Ln8h1bd-91" vertex="1">
          <mxGeometry x="451" y="618.6300000000001" width="335.5" height="146.75" as="geometry" />
        </mxCell>
        <mxCell id="TRhLqOV86OLp4Ln8h1bd-252" value="" style="sketch=0;outlineConnect=0;fontColor=#232F3E;gradientColor=none;fillColor=#8C4FFF;strokeColor=none;dashed=0;verticalLabelPosition=bottom;verticalAlign=top;align=center;html=1;fontSize=12;fontStyle=0;aspect=fixed;pointerEvents=1;shape=mxgraph.aws4.transit_gateway_attachment;" parent="TRhLqOV86OLp4Ln8h1bd-251" vertex="1">
          <mxGeometry x="98.86999999999989" y="15.61999999999989" width="115.5" height="115.5" as="geometry" />
        </mxCell>
        <mxCell id="TRhLqOV86OLp4Ln8h1bd-257" style="edgeStyle=orthogonalEdgeStyle;rounded=0;orthogonalLoop=1;jettySize=auto;html=1;exitX=0;exitY=0.25;exitDx=0;exitDy=0;entryX=0.053;entryY=0.169;entryDx=0;entryDy=0;entryPerimeter=0;" parent="TRhLqOV86OLp4Ln8h1bd-91" source="TRhLqOV86OLp4Ln8h1bd-100" target="TRhLqOV86OLp4Ln8h1bd-100" edge="1">
          <mxGeometry relative="1" as="geometry" />
        </mxCell>
        <mxCell id="TRhLqOV86OLp4Ln8h1bd-267" style="edgeStyle=orthogonalEdgeStyle;rounded=0;orthogonalLoop=1;jettySize=auto;html=1;exitX=0;exitY=0.5;exitDx=0;exitDy=0;exitPerimeter=0;strokeWidth=3;fillColor=#008a00;strokeColor=#005700;" parent="1" source="TRhLqOV86OLp4Ln8h1bd-114" target="TRhLqOV86OLp4Ln8h1bd-148" edge="1">
          <mxGeometry relative="1" as="geometry" />
        </mxCell>
        <mxCell id="TRhLqOV86OLp4Ln8h1bd-114" value="" style="outlineConnect=0;dashed=0;verticalLabelPosition=bottom;verticalAlign=top;align=center;html=1;shape=mxgraph.aws3.cloudfront;fillColor=#F58536;gradientColor=none;" parent="1" vertex="1">
          <mxGeometry x="5038" y="1111" width="187" height="242" as="geometry" />
        </mxCell>
        <mxCell id="TRhLqOV86OLp4Ln8h1bd-129" value="VPC" style="points=[[0,0],[0.25,0],[0.5,0],[0.75,0],[1,0],[1,0.25],[1,0.5],[1,0.75],[1,1],[0.75,1],[0.5,1],[0.25,1],[0,1],[0,0.75],[0,0.5],[0,0.25]];outlineConnect=0;gradientColor=none;html=1;whiteSpace=wrap;fontSize=12;fontStyle=0;container=1;pointerEvents=0;collapsible=0;recursiveResize=0;shape=mxgraph.aws4.group;grIcon=mxgraph.aws4.group_vpc2;strokeColor=#8C4FFF;fillColor=none;verticalAlign=top;align=left;spacingLeft=30;fontColor=#AAB7B8;dashed=0;strokeWidth=3;" parent="1" vertex="1">
          <mxGeometry x="2057" y="40" width="1045" height="924" as="geometry" />
        </mxCell>
        <mxCell id="TRhLqOV86OLp4Ln8h1bd-137" value="Availability Zone" style="fillColor=none;strokeColor=#147EBA;dashed=1;verticalAlign=top;fontStyle=0;fontColor=#147EBA;whiteSpace=wrap;html=1;strokeWidth=3;" parent="TRhLqOV86OLp4Ln8h1bd-129" vertex="1">
          <mxGeometry x="66" y="50.5" width="814" height="279.5" as="geometry" />
        </mxCell>
        <mxCell id="TRhLqOV86OLp4Ln8h1bd-132" value="" style="sketch=0;points=[[0,0,0],[0.25,0,0],[0.5,0,0],[0.75,0,0],[1,0,0],[0,1,0],[0.25,1,0],[0.5,1,0],[0.75,1,0],[1,1,0],[0,0.25,0],[0,0.5,0],[0,0.75,0],[1,0.25,0],[1,0.5,0],[1,0.75,0]];outlineConnect=0;fontColor=#232F3E;fillColor=#7AA116;strokeColor=#ffffff;dashed=0;verticalLabelPosition=bottom;verticalAlign=top;align=center;html=1;fontSize=12;fontStyle=0;aspect=fixed;shape=mxgraph.aws4.resourceIcon;resIcon=mxgraph.aws4.fsx_for_lustre;" parent="TRhLqOV86OLp4Ln8h1bd-129" vertex="1">
          <mxGeometry x="55" y="429" width="99" height="99" as="geometry" />
        </mxCell>
        <mxCell id="TRhLqOV86OLp4Ln8h1bd-131" value="Availability Zone" style="fillColor=none;strokeColor=#147EBA;dashed=1;verticalAlign=top;fontStyle=0;fontColor=#147EBA;whiteSpace=wrap;html=1;strokeWidth=3;" parent="TRhLqOV86OLp4Ln8h1bd-129" vertex="1">
          <mxGeometry x="77" y="583" width="814" height="275" as="geometry" />
        </mxCell>
        <mxCell id="TRhLqOV86OLp4Ln8h1bd-136" value="Private subnet" style="points=[[0,0],[0.25,0],[0.5,0],[0.75,0],[1,0],[1,0.25],[1,0.5],[1,0.75],[1,1],[0.75,1],[0.5,1],[0.25,1],[0,1],[0,0.75],[0,0.5],[0,0.25]];outlineConnect=0;html=1;whiteSpace=wrap;fontSize=12;fontStyle=0;container=1;pointerEvents=0;collapsible=0;recursiveResize=0;shape=mxgraph.aws4.group;grIcon=mxgraph.aws4.group_security_group;grStroke=0;verticalAlign=top;align=left;spacingLeft=30;dashed=0;" parent="TRhLqOV86OLp4Ln8h1bd-129" vertex="1">
          <mxGeometry x="385" y="616" width="418" height="187" as="geometry" />
        </mxCell>
        <mxCell id="TRhLqOV86OLp4Ln8h1bd-138" value="Private subnet" style="points=[[0,0],[0.25,0],[0.5,0],[0.75,0],[1,0],[1,0.25],[1,0.5],[1,0.75],[1,1],[0.75,1],[0.5,1],[0.25,1],[0,1],[0,0.75],[0,0.5],[0,0.25]];outlineConnect=0;html=1;whiteSpace=wrap;fontSize=12;fontStyle=0;container=1;pointerEvents=0;collapsible=0;recursiveResize=0;shape=mxgraph.aws4.group;grIcon=mxgraph.aws4.group_security_group;grStroke=0;verticalAlign=top;align=left;spacingLeft=30;dashed=0;" parent="TRhLqOV86OLp4Ln8h1bd-129" vertex="1">
          <mxGeometry x="386" y="99" width="374" height="176" as="geometry" />
        </mxCell>
        <mxCell id="TRhLqOV86OLp4Ln8h1bd-143" value="Auto Scaling group" style="points=[[0,0],[0.25,0],[0.5,0],[0.75,0],[1,0],[1,0.25],[1,0.5],[1,0.75],[1,1],[0.75,1],[0.5,1],[0.25,1],[0,1],[0,0.75],[0,0.5],[0,0.25]];outlineConnect=0;gradientColor=none;html=1;whiteSpace=wrap;fontSize=12;fontStyle=0;container=1;pointerEvents=0;collapsible=0;recursiveResize=0;shape=mxgraph.aws4.groupCenter;grIcon=mxgraph.aws4.group_auto_scaling_group;grStroke=1;strokeColor=#D86613;fillColor=none;verticalAlign=top;align=center;fontColor=#D86613;dashed=1;spacingTop=25;" parent="TRhLqOV86OLp4Ln8h1bd-129" vertex="1">
          <mxGeometry x="539" y="110" width="130" height="671" as="geometry" />
        </mxCell>
        <mxCell id="TRhLqOV86OLp4Ln8h1bd-141" value="" style="sketch=0;points=[[0,0,0],[0.25,0,0],[0.5,0,0],[0.75,0,0],[1,0,0],[0,1,0],[0.25,1,0],[0.5,1,0],[0.75,1,0],[1,1,0],[0,0.25,0],[0,0.5,0],[0,0.75,0],[1,0.25,0],[1,0.5,0],[1,0.75,0]];outlineConnect=0;fontColor=#232F3E;fillColor=#ED7100;strokeColor=#ffffff;dashed=0;verticalLabelPosition=bottom;verticalAlign=top;align=center;html=1;fontSize=12;fontStyle=0;aspect=fixed;shape=mxgraph.aws4.resourceIcon;resIcon=mxgraph.aws4.ec2;" parent="TRhLqOV86OLp4Ln8h1bd-143" vertex="1">
          <mxGeometry x="32.5" y="566" width="78" height="78" as="geometry" />
        </mxCell>
        <mxCell id="TRhLqOV86OLp4Ln8h1bd-140" value="" style="sketch=0;points=[[0,0,0],[0.25,0,0],[0.5,0,0],[0.75,0,0],[1,0,0],[0,1,0],[0.25,1,0],[0.5,1,0],[0.75,1,0],[1,1,0],[0,0.25,0],[0,0.5,0],[0,0.75,0],[1,0.25,0],[1,0.5,0],[1,0.75,0]];outlineConnect=0;fontColor=#232F3E;fillColor=#ED7100;strokeColor=#ffffff;dashed=0;verticalLabelPosition=bottom;verticalAlign=top;align=center;html=1;fontSize=12;fontStyle=0;aspect=fixed;shape=mxgraph.aws4.resourceIcon;resIcon=mxgraph.aws4.auto_scaling2;" parent="TRhLqOV86OLp4Ln8h1bd-143" vertex="1">
          <mxGeometry x="55" y="286" width="44" height="44" as="geometry" />
        </mxCell>
        <mxCell id="TRhLqOV86OLp4Ln8h1bd-179" value="Auto Scaling group" style="points=[[0,0],[0.25,0],[0.5,0],[0.75,0],[1,0],[1,0.25],[1,0.5],[1,0.75],[1,1],[0.75,1],[0.5,1],[0.25,1],[0,1],[0,0.75],[0,0.5],[0,0.25]];outlineConnect=0;gradientColor=none;html=1;whiteSpace=wrap;fontSize=12;fontStyle=0;container=1;pointerEvents=0;collapsible=0;recursiveResize=0;shape=mxgraph.aws4.groupCenter;grIcon=mxgraph.aws4.group_auto_scaling_group;grStroke=1;strokeColor=#D86613;fillColor=none;verticalAlign=top;align=center;fontColor=#D86613;dashed=1;spacingTop=25;" parent="TRhLqOV86OLp4Ln8h1bd-129" vertex="1">
          <mxGeometry x="409" y="110" width="130" height="660" as="geometry" />
        </mxCell>
        <mxCell id="TRhLqOV86OLp4Ln8h1bd-180" value="" style="sketch=0;outlineConnect=0;fontColor=#232F3E;gradientColor=none;fillColor=#ED7100;strokeColor=none;dashed=0;verticalLabelPosition=bottom;verticalAlign=top;align=center;html=1;fontSize=12;fontStyle=0;aspect=fixed;pointerEvents=1;shape=mxgraph.aws4.auto_scaling2;" parent="TRhLqOV86OLp4Ln8h1bd-179" vertex="1">
          <mxGeometry x="41" y="290" width="48" height="48" as="geometry" />
        </mxCell>
        <mxCell id="TRhLqOV86OLp4Ln8h1bd-176" value="" style="sketch=0;outlineConnect=0;fontColor=#232F3E;gradientColor=none;fillColor=#7AA116;strokeColor=none;dashed=0;verticalLabelPosition=bottom;verticalAlign=top;align=center;html=1;fontSize=12;fontStyle=0;aspect=fixed;pointerEvents=1;shape=mxgraph.aws4.elastic_file_system_standard;" parent="TRhLqOV86OLp4Ln8h1bd-129" vertex="1">
          <mxGeometry x="726" y="385" width="99" height="99" as="geometry" />
        </mxCell>
        <mxCell id="TRhLqOV86OLp4Ln8h1bd-142" value="" style="sketch=0;points=[[0,0,0],[0.25,0,0],[0.5,0,0],[0.75,0,0],[1,0,0],[0,1,0],[0.25,1,0],[0.5,1,0],[0.75,1,0],[1,1,0],[0,0.25,0],[0,0.5,0],[0,0.75,0],[1,0.25,0],[1,0.5,0],[1,0.75,0]];outlineConnect=0;fontColor=#232F3E;fillColor=#ED7100;strokeColor=#ffffff;dashed=0;verticalLabelPosition=bottom;verticalAlign=top;align=center;html=1;fontSize=12;fontStyle=0;aspect=fixed;shape=mxgraph.aws4.resourceIcon;resIcon=mxgraph.aws4.ec2;" parent="TRhLqOV86OLp4Ln8h1bd-129" vertex="1">
          <mxGeometry x="572" y="151.25" width="78" height="78" as="geometry" />
        </mxCell>
        <mxCell id="TRhLqOV86OLp4Ln8h1bd-166" value="" style="sketch=0;points=[[0,0,0],[0.25,0,0],[0.5,0,0],[0.75,0,0],[1,0,0],[0,1,0],[0.25,1,0],[0.5,1,0],[0.75,1,0],[1,1,0],[0,0.25,0],[0,0.5,0],[0,0.75,0],[1,0.25,0],[1,0.5,0],[1,0.75,0]];outlineConnect=0;fontColor=#232F3E;fillColor=#C925D1;strokeColor=#ffffff;dashed=0;verticalLabelPosition=bottom;verticalAlign=top;align=center;html=1;fontSize=12;fontStyle=0;aspect=fixed;shape=mxgraph.aws4.resourceIcon;resIcon=mxgraph.aws4.aurora;" parent="TRhLqOV86OLp4Ln8h1bd-129" vertex="1">
          <mxGeometry x="704" y="676.5" width="88" height="88" as="geometry" />
        </mxCell>
        <mxCell id="TRhLqOV86OLp4Ln8h1bd-177" value="" style="sketch=0;points=[[0,0,0],[0.25,0,0],[0.5,0,0],[0.75,0,0],[1,0,0],[0,1,0],[0.25,1,0],[0.5,1,0],[0.75,1,0],[1,1,0],[0,0.25,0],[0,0.5,0],[0,0.75,0],[1,0.25,0],[1,0.5,0],[1,0.75,0]];outlineConnect=0;fontColor=#232F3E;fillColor=#ED7100;strokeColor=#ffffff;dashed=0;verticalLabelPosition=bottom;verticalAlign=top;align=center;html=1;fontSize=12;fontStyle=0;aspect=fixed;shape=mxgraph.aws4.resourceIcon;resIcon=mxgraph.aws4.elastic_beanstalk;" parent="TRhLqOV86OLp4Ln8h1bd-129" vertex="1">
          <mxGeometry x="429" y="158" width="78" height="78" as="geometry" />
        </mxCell>
        <mxCell id="TRhLqOV86OLp4Ln8h1bd-178" value="" style="sketch=0;points=[[0,0,0],[0.25,0,0],[0.5,0,0],[0.75,0,0],[1,0,0],[0,1,0],[0.25,1,0],[0.5,1,0],[0.75,1,0],[1,1,0],[0,0.25,0],[0,0.5,0],[0,0.75,0],[1,0.25,0],[1,0.5,0],[1,0.75,0]];outlineConnect=0;fontColor=#232F3E;fillColor=#ED7100;strokeColor=#ffffff;dashed=0;verticalLabelPosition=bottom;verticalAlign=top;align=center;html=1;fontSize=12;fontStyle=0;aspect=fixed;shape=mxgraph.aws4.resourceIcon;resIcon=mxgraph.aws4.elastic_beanstalk;" parent="TRhLqOV86OLp4Ln8h1bd-129" vertex="1">
          <mxGeometry x="434" y="665" width="78" height="78" as="geometry" />
        </mxCell>
        <mxCell id="TRhLqOV86OLp4Ln8h1bd-234" value="Private subnet" style="points=[[0,0],[0.25,0],[0.5,0],[0.75,0],[1,0],[1,0.25],[1,0.5],[1,0.75],[1,1],[0.75,1],[0.5,1],[0.25,1],[0,1],[0,0.75],[0,0.5],[0,0.25]];outlineConnect=0;html=1;whiteSpace=wrap;fontSize=12;fontStyle=0;container=1;pointerEvents=0;collapsible=0;recursiveResize=0;shape=mxgraph.aws4.group;grIcon=mxgraph.aws4.group_security_group;grStroke=0;verticalAlign=top;align=left;spacingLeft=30;dashed=0;" parent="TRhLqOV86OLp4Ln8h1bd-129" vertex="1">
          <mxGeometry x="88" y="616" width="264" height="176" as="geometry" />
        </mxCell>
        <mxCell id="TRhLqOV86OLp4Ln8h1bd-237" value="" style="sketch=0;outlineConnect=0;fontColor=#232F3E;gradientColor=none;fillColor=#8C4FFF;strokeColor=none;dashed=0;verticalLabelPosition=bottom;verticalAlign=top;align=center;html=1;fontSize=12;fontStyle=0;aspect=fixed;pointerEvents=1;shape=mxgraph.aws4.transit_gateway_attachment;" parent="TRhLqOV86OLp4Ln8h1bd-234" vertex="1">
          <mxGeometry x="77" y="46" width="84" height="84" as="geometry" />
        </mxCell>
        <mxCell id="TRhLqOV86OLp4Ln8h1bd-235" value="Private subnet" style="points=[[0,0],[0.25,0],[0.5,0],[0.75,0],[1,0],[1,0.25],[1,0.5],[1,0.75],[1,1],[0.75,1],[0.5,1],[0.25,1],[0,1],[0,0.75],[0,0.5],[0,0.25]];outlineConnect=0;html=1;whiteSpace=wrap;fontSize=12;fontStyle=0;container=1;pointerEvents=0;collapsible=0;recursiveResize=0;shape=mxgraph.aws4.group;grIcon=mxgraph.aws4.group_security_group;grStroke=0;verticalAlign=top;align=left;spacingLeft=30;dashed=0;" parent="TRhLqOV86OLp4Ln8h1bd-129" vertex="1">
          <mxGeometry x="88" y="99" width="275" height="176" as="geometry" />
        </mxCell>
        <mxCell id="TRhLqOV86OLp4Ln8h1bd-236" value="" style="sketch=0;outlineConnect=0;fontColor=#232F3E;gradientColor=none;fillColor=#8C4FFF;strokeColor=none;dashed=0;verticalLabelPosition=bottom;verticalAlign=top;align=center;html=1;fontSize=12;fontStyle=0;aspect=fixed;pointerEvents=1;shape=mxgraph.aws4.transit_gateway_attachment;" parent="TRhLqOV86OLp4Ln8h1bd-235" vertex="1">
          <mxGeometry x="77" y="37" width="84" height="84" as="geometry" />
        </mxCell>
        <mxCell id="TRhLqOV86OLp4Ln8h1bd-148" value="VPC" style="points=[[0,0],[0.25,0],[0.5,0],[0.75,0],[1,0],[1,0.25],[1,0.5],[1,0.75],[1,1],[0.75,1],[0.5,1],[0.25,1],[0,1],[0,0.75],[0,0.5],[0,0.25]];outlineConnect=0;gradientColor=none;html=1;whiteSpace=wrap;fontSize=12;fontStyle=0;container=1;pointerEvents=0;collapsible=0;recursiveResize=0;shape=mxgraph.aws4.group;grIcon=mxgraph.aws4.group_vpc2;strokeColor=#8C4FFF;fillColor=none;verticalAlign=top;align=left;spacingLeft=30;fontColor=#AAB7B8;dashed=0;strokeWidth=3;" parent="1" vertex="1">
          <mxGeometry x="1969" y="1243" width="1738" height="1122" as="geometry" />
        </mxCell>
        <mxCell id="TRhLqOV86OLp4Ln8h1bd-163" value="Availability Zone" style="fillColor=none;strokeColor=#147EBA;dashed=1;verticalAlign=top;fontStyle=0;fontColor=#147EBA;whiteSpace=wrap;html=1;strokeWidth=3;" parent="TRhLqOV86OLp4Ln8h1bd-148" vertex="1">
          <mxGeometry x="110" y="44" width="1496" height="374" as="geometry" />
        </mxCell>
        <mxCell id="TRhLqOV86OLp4Ln8h1bd-165" value="Availability Zone" style="fillColor=none;strokeColor=#147EBA;dashed=1;verticalAlign=top;fontStyle=0;fontColor=#147EBA;whiteSpace=wrap;html=1;strokeWidth=3;" parent="TRhLqOV86OLp4Ln8h1bd-148" vertex="1">
          <mxGeometry x="121" y="572" width="1496" height="418" as="geometry" />
        </mxCell>
        <mxCell id="TRhLqOV86OLp4Ln8h1bd-185" value="Private subnet" style="points=[[0,0],[0.25,0],[0.5,0],[0.75,0],[1,0],[1,0.25],[1,0.5],[1,0.75],[1,1],[0.75,1],[0.5,1],[0.25,1],[0,1],[0,0.75],[0,0.5],[0,0.25]];outlineConnect=0;html=1;whiteSpace=wrap;fontSize=12;fontStyle=0;container=1;pointerEvents=0;collapsible=0;recursiveResize=0;shape=mxgraph.aws4.group;grIcon=mxgraph.aws4.group_security_group;grStroke=0;verticalAlign=top;align=left;spacingLeft=30;dashed=0;" parent="TRhLqOV86OLp4Ln8h1bd-148" vertex="1">
          <mxGeometry x="176" y="660" width="407" height="275" as="geometry" />
        </mxCell>
        <mxCell id="TRhLqOV86OLp4Ln8h1bd-186" value="Private subnet" style="points=[[0,0],[0.25,0],[0.5,0],[0.75,0],[1,0],[1,0.25],[1,0.5],[1,0.75],[1,1],[0.75,1],[0.5,1],[0.25,1],[0,1],[0,0.75],[0,0.5],[0,0.25]];outlineConnect=0;html=1;whiteSpace=wrap;fontSize=12;fontStyle=0;container=1;pointerEvents=0;collapsible=0;recursiveResize=0;shape=mxgraph.aws4.group;grIcon=mxgraph.aws4.group_security_group;grStroke=0;verticalAlign=top;align=left;spacingLeft=30;dashed=0;strokeWidth=3;" parent="TRhLqOV86OLp4Ln8h1bd-148" vertex="1">
          <mxGeometry x="665.5" y="93.5" width="407" height="275" as="geometry" />
        </mxCell>
        <mxCell id="TRhLqOV86OLp4Ln8h1bd-198" value="" style="sketch=0;outlineConnect=0;fontColor=#232F3E;gradientColor=none;fillColor=#DD344C;strokeColor=none;dashed=0;verticalLabelPosition=bottom;verticalAlign=top;align=center;html=1;fontSize=12;fontStyle=0;aspect=fixed;pointerEvents=1;shape=mxgraph.aws4.network_firewall_endpoints;" parent="TRhLqOV86OLp4Ln8h1bd-186" vertex="1">
          <mxGeometry x="122.13000000000011" y="62.75" width="162.75" height="162.75" as="geometry" />
        </mxCell>
        <mxCell id="TRhLqOV86OLp4Ln8h1bd-189" value="Private subnet" style="points=[[0,0],[0.25,0],[0.5,0],[0.75,0],[1,0],[1,0.25],[1,0.5],[1,0.75],[1,1],[0.75,1],[0.5,1],[0.25,1],[0,1],[0,0.75],[0,0.5],[0,0.25]];outlineConnect=0;html=1;whiteSpace=wrap;fontSize=12;fontStyle=0;container=1;pointerEvents=0;collapsible=0;recursiveResize=0;shape=mxgraph.aws4.group;grIcon=mxgraph.aws4.group_security_group;grStroke=0;verticalAlign=top;align=left;spacingLeft=30;dashed=0;" parent="TRhLqOV86OLp4Ln8h1bd-148" vertex="1">
          <mxGeometry x="187" y="93.5" width="407" height="275" as="geometry" />
        </mxCell>
        <mxCell id="TRhLqOV86OLp4Ln8h1bd-224" value="" style="sketch=0;outlineConnect=0;fontColor=#232F3E;gradientColor=none;fillColor=#8C4FFF;strokeColor=none;dashed=0;verticalLabelPosition=bottom;verticalAlign=top;align=center;html=1;fontSize=12;fontStyle=0;aspect=fixed;pointerEvents=1;shape=mxgraph.aws4.transit_gateway_attachment;" parent="TRhLqOV86OLp4Ln8h1bd-189" vertex="1">
          <mxGeometry x="134.5" y="78.5" width="115.5" height="115.5" as="geometry" />
        </mxCell>
        <mxCell id="TRhLqOV86OLp4Ln8h1bd-193" value="Private subnet" style="points=[[0,0],[0.25,0],[0.5,0],[0.75,0],[1,0],[1,0.25],[1,0.5],[1,0.75],[1,1],[0.75,1],[0.5,1],[0.25,1],[0,1],[0,0.75],[0,0.5],[0,0.25]];outlineConnect=0;html=1;whiteSpace=wrap;fontSize=12;fontStyle=0;container=1;pointerEvents=0;collapsible=0;recursiveResize=0;shape=mxgraph.aws4.group;grIcon=mxgraph.aws4.group_security_group;grStroke=0;verticalAlign=top;align=left;spacingLeft=30;dashed=0;" parent="TRhLqOV86OLp4Ln8h1bd-148" vertex="1">
          <mxGeometry x="638" y="660" width="407" height="275" as="geometry" />
        </mxCell>
        <mxCell id="TRhLqOV86OLp4Ln8h1bd-194" value="Public subnet" style="points=[[0,0],[0.25,0],[0.5,0],[0.75,0],[1,0],[1,0.25],[1,0.5],[1,0.75],[1,1],[0.75,1],[0.5,1],[0.25,1],[0,1],[0,0.75],[0,0.5],[0,0.25]];outlineConnect=0;html=1;whiteSpace=wrap;fontSize=12;fontStyle=0;container=1;pointerEvents=0;collapsible=0;recursiveResize=0;shape=mxgraph.aws4.group;grIcon=mxgraph.aws4.group_security_group;grStroke=0;strokeColor=#006EAF;fillColor=#1ba1e2;verticalAlign=top;align=left;spacingLeft=30;fontColor=#ffffff;dashed=0;" parent="TRhLqOV86OLp4Ln8h1bd-148" vertex="1">
          <mxGeometry x="1122" y="93.5" width="451" height="269.5" as="geometry" />
        </mxCell>
        <mxCell id="TRhLqOV86OLp4Ln8h1bd-199" value="" style="sketch=0;outlineConnect=0;fontColor=#232F3E;gradientColor=none;fillColor=#8C4FFF;strokeColor=none;dashed=0;verticalLabelPosition=bottom;verticalAlign=top;align=center;html=1;fontSize=12;fontStyle=0;aspect=fixed;pointerEvents=1;shape=mxgraph.aws4.nat_gateway;" parent="TRhLqOV86OLp4Ln8h1bd-194" vertex="1">
          <mxGeometry x="187" y="79.75" width="110" height="110" as="geometry" />
        </mxCell>
        <mxCell id="TRhLqOV86OLp4Ln8h1bd-195" value="Public subnet" style="points=[[0,0],[0.25,0],[0.5,0],[0.75,0],[1,0],[1,0.25],[1,0.5],[1,0.75],[1,1],[0.75,1],[0.5,1],[0.25,1],[0,1],[0,0.75],[0,0.5],[0,0.25]];outlineConnect=0;html=1;whiteSpace=wrap;fontSize=12;fontStyle=0;container=1;pointerEvents=0;collapsible=0;recursiveResize=0;shape=mxgraph.aws4.group;grIcon=mxgraph.aws4.group_security_group;grStroke=0;strokeColor=#006EAF;fillColor=#1ba1e2;verticalAlign=top;align=left;spacingLeft=30;fontColor=#ffffff;dashed=0;" parent="TRhLqOV86OLp4Ln8h1bd-148" vertex="1">
          <mxGeometry x="1122" y="671" width="451" height="269.5" as="geometry" />
        </mxCell>
        <mxCell id="TRhLqOV86OLp4Ln8h1bd-200" value="" style="sketch=0;outlineConnect=0;fontColor=#232F3E;gradientColor=none;fillColor=#8C4FFF;strokeColor=none;dashed=0;verticalLabelPosition=bottom;verticalAlign=top;align=center;html=1;fontSize=12;fontStyle=0;aspect=fixed;pointerEvents=1;shape=mxgraph.aws4.nat_gateway;" parent="TRhLqOV86OLp4Ln8h1bd-195" vertex="1">
          <mxGeometry x="176" y="71" width="110" height="110" as="geometry" />
        </mxCell>
        <mxCell id="TRhLqOV86OLp4Ln8h1bd-197" value="" style="sketch=0;outlineConnect=0;fontColor=#232F3E;gradientColor=none;fillColor=#DD344C;strokeColor=none;dashed=0;verticalLabelPosition=bottom;verticalAlign=top;align=center;html=1;fontSize=12;fontStyle=0;aspect=fixed;pointerEvents=1;shape=mxgraph.aws4.network_firewall_endpoints;" parent="TRhLqOV86OLp4Ln8h1bd-148" vertex="1">
          <mxGeometry x="760.12" y="716.12" width="162.75" height="162.75" as="geometry" />
        </mxCell>
        <mxCell id="TRhLqOV86OLp4Ln8h1bd-202" value="" style="sketch=0;outlineConnect=0;fontColor=#232F3E;gradientColor=none;fillColor=#8C4FFF;strokeColor=none;dashed=0;verticalLabelPosition=bottom;verticalAlign=top;align=center;html=1;fontSize=12;fontStyle=0;aspect=fixed;pointerEvents=1;shape=mxgraph.aws4.route_table;" parent="TRhLqOV86OLp4Ln8h1bd-148" vertex="1">
          <mxGeometry x="781" y="1001" width="78" height="76" as="geometry" />
        </mxCell>
        <mxCell id="TRhLqOV86OLp4Ln8h1bd-219" value="" style="sketch=0;outlineConnect=0;fontColor=#232F3E;gradientColor=none;fillColor=#8C4FFF;strokeColor=none;dashed=0;verticalLabelPosition=bottom;verticalAlign=top;align=center;html=1;fontSize=12;fontStyle=0;aspect=fixed;pointerEvents=1;shape=mxgraph.aws4.route_table;" parent="TRhLqOV86OLp4Ln8h1bd-148" vertex="1">
          <mxGeometry x="802.5" y="462" width="78" height="76" as="geometry" />
        </mxCell>
        <mxCell id="TRhLqOV86OLp4Ln8h1bd-220" value="" style="sketch=0;outlineConnect=0;fontColor=#232F3E;gradientColor=none;fillColor=#8C4FFF;strokeColor=none;dashed=0;verticalLabelPosition=bottom;verticalAlign=top;align=center;html=1;fontSize=12;fontStyle=0;aspect=fixed;pointerEvents=1;shape=mxgraph.aws4.route_table;" parent="TRhLqOV86OLp4Ln8h1bd-148" vertex="1">
          <mxGeometry x="1308.5" y="451" width="78" height="76" as="geometry" />
        </mxCell>
        <mxCell id="TRhLqOV86OLp4Ln8h1bd-221" value="" style="sketch=0;outlineConnect=0;fontColor=#232F3E;gradientColor=none;fillColor=#8C4FFF;strokeColor=none;dashed=0;verticalLabelPosition=bottom;verticalAlign=top;align=center;html=1;fontSize=12;fontStyle=0;aspect=fixed;pointerEvents=1;shape=mxgraph.aws4.route_table;" parent="TRhLqOV86OLp4Ln8h1bd-148" vertex="1">
          <mxGeometry x="1298" y="1023" width="78" height="76" as="geometry" />
        </mxCell>
        <mxCell id="TRhLqOV86OLp4Ln8h1bd-223" value="" style="sketch=0;outlineConnect=0;fontColor=#232F3E;gradientColor=none;fillColor=#8C4FFF;strokeColor=none;dashed=0;verticalLabelPosition=bottom;verticalAlign=top;align=center;html=1;fontSize=12;fontStyle=0;aspect=fixed;pointerEvents=1;shape=mxgraph.aws4.transit_gateway_attachment;" parent="TRhLqOV86OLp4Ln8h1bd-148" vertex="1">
          <mxGeometry x="307.25" y="748" width="115.5" height="115.5" as="geometry" />
        </mxCell>
        <mxCell id="TRhLqOV86OLp4Ln8h1bd-156" value="" style="sketch=0;outlineConnect=0;fontColor=#232F3E;gradientColor=none;fillColor=#E7157B;strokeColor=none;dashed=0;verticalLabelPosition=bottom;verticalAlign=top;align=center;html=1;fontSize=12;fontStyle=0;aspect=fixed;pointerEvents=1;shape=mxgraph.aws4.organizations_management_account;" parent="1" vertex="1">
          <mxGeometry x="1375" y="3652" width="125.23" height="132" as="geometry" />
        </mxCell>
        <mxCell id="TRhLqOV86OLp4Ln8h1bd-157" value="" style="sketch=0;outlineConnect=0;fontColor=#232F3E;gradientColor=none;fillColor=#E7157B;strokeColor=none;dashed=0;verticalLabelPosition=bottom;verticalAlign=top;align=center;html=1;fontSize=12;fontStyle=0;aspect=fixed;pointerEvents=1;shape=mxgraph.aws4.organizations_organizational_unit2;" parent="1" vertex="1">
          <mxGeometry x="583" y="3949" width="110" height="110" as="geometry" />
        </mxCell>
        <mxCell id="TRhLqOV86OLp4Ln8h1bd-158" value="" style="sketch=0;outlineConnect=0;fontColor=#232F3E;gradientColor=none;fillColor=#E7157B;strokeColor=none;dashed=0;verticalLabelPosition=bottom;verticalAlign=top;align=center;html=1;fontSize=12;fontStyle=0;aspect=fixed;pointerEvents=1;shape=mxgraph.aws4.organizations_organizational_unit2;" parent="1" vertex="1">
          <mxGeometry x="1089" y="3938" width="110" height="110" as="geometry" />
        </mxCell>
        <mxCell id="TRhLqOV86OLp4Ln8h1bd-159" value="" style="sketch=0;outlineConnect=0;fontColor=#232F3E;gradientColor=none;fillColor=#E7157B;strokeColor=none;dashed=0;verticalLabelPosition=bottom;verticalAlign=top;align=center;html=1;fontSize=12;fontStyle=0;aspect=fixed;pointerEvents=1;shape=mxgraph.aws4.organizations_organizational_unit2;" parent="1" vertex="1">
          <mxGeometry x="1500.23" y="3938" width="110" height="110" as="geometry" />
        </mxCell>
        <mxCell id="TRhLqOV86OLp4Ln8h1bd-160" value="" style="sketch=0;outlineConnect=0;fontColor=#232F3E;gradientColor=none;fillColor=#E7157B;strokeColor=none;dashed=0;verticalLabelPosition=bottom;verticalAlign=top;align=center;html=1;fontSize=12;fontStyle=0;aspect=fixed;pointerEvents=1;shape=mxgraph.aws4.organizations_organizational_unit2;" parent="1" vertex="1">
          <mxGeometry x="2057" y="3938" width="110" height="110" as="geometry" />
        </mxCell>
        <mxCell id="TRhLqOV86OLp4Ln8h1bd-161" value="" style="whiteSpace=wrap;html=1;" parent="1" vertex="1">
          <mxGeometry x="693" y="3916" width="120" height="60" as="geometry" />
        </mxCell>
        <mxCell id="TRhLqOV86OLp4Ln8h1bd-162" value="MANAGEMENT/ ROOT ACCOUNT" style="whiteSpace=wrap;html=1;" parent="1" vertex="1">
          <mxGeometry x="1509" y="3688" width="120" height="60" as="geometry" />
        </mxCell>
        <mxCell id="M_qaYyCu_lWjV66l2fEF-9" style="edgeStyle=orthogonalEdgeStyle;rounded=0;orthogonalLoop=1;jettySize=auto;html=1;" edge="1" parent="1" source="TRhLqOV86OLp4Ln8h1bd-169" target="M_qaYyCu_lWjV66l2fEF-4">
          <mxGeometry relative="1" as="geometry" />
        </mxCell>
        <mxCell id="TRhLqOV86OLp4Ln8h1bd-169" value="" style="sketch=0;outlineConnect=0;fontColor=#232F3E;gradientColor=none;fillColor=#8C4FFF;strokeColor=none;dashed=0;verticalLabelPosition=bottom;verticalAlign=top;align=center;html=1;fontSize=12;fontStyle=0;aspect=fixed;pointerEvents=1;shape=mxgraph.aws4.elastic_network_interface;" parent="1" vertex="1">
          <mxGeometry x="3102" y="396" width="77" height="77" as="geometry" />
        </mxCell>
        <mxCell id="TRhLqOV86OLp4Ln8h1bd-181" value="" style="outlineConnect=0;dashed=0;verticalLabelPosition=bottom;verticalAlign=top;align=center;html=1;shape=mxgraph.aws3.cloudwatch;fillColor=#759C3E;gradientColor=none;" parent="1" vertex="1">
          <mxGeometry x="-495" y="-814" width="212" height="253" as="geometry" />
        </mxCell>
        <mxCell id="TRhLqOV86OLp4Ln8h1bd-183" value="" style="outlineConnect=0;dashed=0;verticalLabelPosition=bottom;verticalAlign=top;align=center;html=1;shape=mxgraph.aws3.route_53;fillColor=#F58536;gradientColor=none;" parent="1" vertex="1">
          <mxGeometry x="6149" y="-704" width="154" height="176" as="geometry" />
        </mxCell>
        <mxCell id="TRhLqOV86OLp4Ln8h1bd-201" value="" style="sketch=0;outlineConnect=0;fontColor=#232F3E;gradientColor=none;fillColor=#8C4FFF;strokeColor=none;dashed=0;verticalLabelPosition=bottom;verticalAlign=top;align=center;html=1;fontSize=12;fontStyle=0;aspect=fixed;pointerEvents=1;shape=mxgraph.aws4.internet_gateway;" parent="1" vertex="1">
          <mxGeometry x="3696" y="1694" width="165" height="165" as="geometry" />
        </mxCell>
        <mxCell id="TRhLqOV86OLp4Ln8h1bd-222" value="" style="sketch=0;outlineConnect=0;fontColor=#232F3E;gradientColor=none;fillColor=#8C4FFF;strokeColor=none;dashed=0;verticalLabelPosition=bottom;verticalAlign=top;align=center;html=1;fontSize=12;fontStyle=0;aspect=fixed;pointerEvents=1;shape=mxgraph.aws4.route_table;" parent="1" vertex="1">
          <mxGeometry x="3751" y="1883.12" width="78" height="76" as="geometry" />
        </mxCell>
        <mxCell id="M_qaYyCu_lWjV66l2fEF-21" style="edgeStyle=orthogonalEdgeStyle;rounded=0;orthogonalLoop=1;jettySize=auto;html=1;" edge="1" parent="1" source="TRhLqOV86OLp4Ln8h1bd-127" target="TRhLqOV86OLp4Ln8h1bd-244">
          <mxGeometry relative="1" as="geometry" />
        </mxCell>
        <mxCell id="M_qaYyCu_lWjV66l2fEF-22" style="edgeStyle=orthogonalEdgeStyle;rounded=0;orthogonalLoop=1;jettySize=auto;html=1;entryX=0.5;entryY=0;entryDx=0;entryDy=0;" edge="1" parent="1" source="TRhLqOV86OLp4Ln8h1bd-127" target="TRhLqOV86OLp4Ln8h1bd-1">
          <mxGeometry relative="1" as="geometry" />
        </mxCell>
        <mxCell id="M_qaYyCu_lWjV66l2fEF-23" style="edgeStyle=orthogonalEdgeStyle;rounded=0;orthogonalLoop=1;jettySize=auto;html=1;entryX=0;entryY=0.5;entryDx=0;entryDy=0;" edge="1" parent="1" source="TRhLqOV86OLp4Ln8h1bd-127" target="TRhLqOV86OLp4Ln8h1bd-137">
          <mxGeometry relative="1" as="geometry" />
        </mxCell>
        <mxCell id="M_qaYyCu_lWjV66l2fEF-27" style="edgeStyle=orthogonalEdgeStyle;rounded=0;orthogonalLoop=1;jettySize=auto;html=1;" edge="1" parent="1" source="TRhLqOV86OLp4Ln8h1bd-127" target="TRhLqOV86OLp4Ln8h1bd-249">
          <mxGeometry relative="1" as="geometry" />
        </mxCell>
        <mxCell id="M_qaYyCu_lWjV66l2fEF-28" style="edgeStyle=orthogonalEdgeStyle;rounded=0;orthogonalLoop=1;jettySize=auto;html=1;entryX=1;entryY=0.75;entryDx=0;entryDy=0;" edge="1" parent="1" source="TRhLqOV86OLp4Ln8h1bd-127" target="TRhLqOV86OLp4Ln8h1bd-91">
          <mxGeometry relative="1" as="geometry" />
        </mxCell>
        <mxCell id="TRhLqOV86OLp4Ln8h1bd-127" value="" style="sketch=0;outlineConnect=0;fontColor=#232F3E;gradientColor=none;fillColor=#8C4FFF;strokeColor=none;dashed=0;verticalLabelPosition=bottom;verticalAlign=top;align=center;html=1;fontSize=12;fontStyle=0;aspect=fixed;pointerEvents=1;shape=mxgraph.aws4.cloud_wan_transit_gateway_route_table_attachment;" parent="1" vertex="1">
          <mxGeometry x="1507" y="1067" width="132" height="132" as="geometry" />
        </mxCell>
        <mxCell id="TRhLqOV86OLp4Ln8h1bd-255" value="MANAGEMENT AND ACCOUNTING OU" style="whiteSpace=wrap;html=1;" parent="1" vertex="1">
          <mxGeometry x="2376" y="-5.5" width="330" height="38" as="geometry" />
        </mxCell>
        <mxCell id="TRhLqOV86OLp4Ln8h1bd-256" value="AWS" style="ellipse;shape=cloud;whiteSpace=wrap;html=1;" parent="1" vertex="1">
          <mxGeometry x="99" y="-154" width="120" height="80" as="geometry" />
        </mxCell>
        <mxCell id="TRhLqOV86OLp4Ln8h1bd-258" value="" style="outlineConnect=0;dashed=0;verticalLabelPosition=bottom;verticalAlign=top;align=center;html=1;shape=mxgraph.aws3.edge_location;fillColor=#F58536;gradientColor=none;" parent="1" vertex="1">
          <mxGeometry x="5610" y="2134" width="58.5" height="64.5" as="geometry" />
        </mxCell>
        <mxCell id="TRhLqOV86OLp4Ln8h1bd-259" value="" style="outlineConnect=0;dashed=0;verticalLabelPosition=bottom;verticalAlign=top;align=center;html=1;shape=mxgraph.aws3.edge_location;fillColor=#F58536;gradientColor=none;" parent="1" vertex="1">
          <mxGeometry x="4708" y="2288" width="58.5" height="64.5" as="geometry" />
        </mxCell>
        <mxCell id="TRhLqOV86OLp4Ln8h1bd-260" value="" style="outlineConnect=0;dashed=0;verticalLabelPosition=bottom;verticalAlign=top;align=center;html=1;shape=mxgraph.aws3.edge_location;fillColor=#F58536;gradientColor=none;" parent="1" vertex="1">
          <mxGeometry x="6270" y="1529" width="58.5" height="64.5" as="geometry" />
        </mxCell>
        <mxCell id="TRhLqOV86OLp4Ln8h1bd-261" value="" style="outlineConnect=0;dashed=0;verticalLabelPosition=bottom;verticalAlign=top;align=center;html=1;shape=mxgraph.aws3.edge_location;fillColor=#F58536;gradientColor=none;" parent="1" vertex="1">
          <mxGeometry x="6303" y="654" width="58.5" height="64.5" as="geometry" />
        </mxCell>
        <mxCell id="TRhLqOV86OLp4Ln8h1bd-262" value="" style="outlineConnect=0;dashed=0;verticalLabelPosition=bottom;verticalAlign=top;align=center;html=1;shape=mxgraph.aws3.edge_location;fillColor=#F58536;gradientColor=none;" parent="1" vertex="1">
          <mxGeometry x="5654" y="77" width="58.5" height="64.5" as="geometry" />
        </mxCell>
        <mxCell id="TRhLqOV86OLp4Ln8h1bd-263" value="" style="outlineConnect=0;dashed=0;verticalLabelPosition=bottom;verticalAlign=top;align=center;html=1;shape=mxgraph.aws3.edge_location;fillColor=#F58536;gradientColor=none;" parent="1" vertex="1">
          <mxGeometry x="4620" y="-116" width="58.5" height="64.5" as="geometry" />
        </mxCell>
        <mxCell id="TRhLqOV86OLp4Ln8h1bd-265" style="edgeStyle=orthogonalEdgeStyle;rounded=0;orthogonalLoop=1;jettySize=auto;html=1;exitX=0.29;exitY=0.91;exitDx=0;exitDy=0;exitPerimeter=0;entryX=0.5;entryY=0;entryDx=0;entryDy=0;entryPerimeter=0;strokeWidth=3;fillColor=#008a00;strokeColor=#005700;" parent="1" source="TRhLqOV86OLp4Ln8h1bd-183" target="TRhLqOV86OLp4Ln8h1bd-262" edge="1">
          <mxGeometry relative="1" as="geometry" />
        </mxCell>
        <mxCell id="TRhLqOV86OLp4Ln8h1bd-266" style="edgeStyle=orthogonalEdgeStyle;rounded=0;orthogonalLoop=1;jettySize=auto;html=1;exitX=0.5;exitY=1;exitDx=0;exitDy=0;exitPerimeter=0;entryX=1;entryY=0.5;entryDx=0;entryDy=0;entryPerimeter=0;strokeWidth=3;strokeColor=#005700;fillColor=#008a00;" parent="1" source="TRhLqOV86OLp4Ln8h1bd-117" target="TRhLqOV86OLp4Ln8h1bd-114" edge="1">
          <mxGeometry relative="1" as="geometry" />
        </mxCell>
        <mxCell id="TRhLqOV86OLp4Ln8h1bd-270" value="users" style="sketch=0;outlineConnect=0;gradientColor=none;fontColor=#545B64;strokeColor=none;fillColor=#879196;dashed=0;verticalLabelPosition=bottom;verticalAlign=top;align=center;html=1;fontSize=12;fontStyle=0;aspect=fixed;shape=mxgraph.aws4.illustration_users;pointerEvents=1" parent="1" vertex="1">
          <mxGeometry x="4774" y="-1265" width="220" height="220" as="geometry" />
        </mxCell>
        <mxCell id="TRhLqOV86OLp4Ln8h1bd-271" value="users" style="sketch=0;outlineConnect=0;gradientColor=none;fontColor=#545B64;strokeColor=none;fillColor=#879196;dashed=0;verticalLabelPosition=bottom;verticalAlign=top;align=center;html=1;fontSize=12;fontStyle=0;aspect=fixed;shape=mxgraph.aws4.illustration_users;pointerEvents=1" parent="1" vertex="1">
          <mxGeometry x="5170" y="-1298" width="220" height="220" as="geometry" />
        </mxCell>
        <mxCell id="TRhLqOV86OLp4Ln8h1bd-272" value="users" style="sketch=0;outlineConnect=0;gradientColor=none;fontColor=#545B64;strokeColor=none;fillColor=#879196;dashed=0;verticalLabelPosition=bottom;verticalAlign=top;align=center;html=1;fontSize=12;fontStyle=0;aspect=fixed;shape=mxgraph.aws4.illustration_users;pointerEvents=1" parent="1" vertex="1">
          <mxGeometry x="5016" y="-968" width="220" height="220" as="geometry" />
        </mxCell>
        <mxCell id="TRhLqOV86OLp4Ln8h1bd-273" value="Region" style="points=[[0,0],[0.25,0],[0.5,0],[0.75,0],[1,0],[1,0.25],[1,0.5],[1,0.75],[1,1],[0.75,1],[0.5,1],[0.25,1],[0,1],[0,0.75],[0,0.5],[0,0.25]];outlineConnect=0;gradientColor=none;html=1;whiteSpace=wrap;fontSize=12;fontStyle=0;container=1;pointerEvents=0;collapsible=0;recursiveResize=0;shape=mxgraph.aws4.group;grIcon=mxgraph.aws4.group_region;strokeColor=#00A4A6;fillColor=none;verticalAlign=top;align=left;spacingLeft=30;fontColor=#147EBA;dashed=1;strokeWidth=5;" parent="1" vertex="1">
          <mxGeometry x="22" y="-396" width="3905" height="2871" as="geometry" />
        </mxCell>
        <mxCell id="M_qaYyCu_lWjV66l2fEF-11" value="" style="sketch=0;points=[[0,0,0],[0.25,0,0],[0.5,0,0],[0.75,0,0],[1,0,0],[0,1,0],[0.25,1,0],[0.5,1,0],[0.75,1,0],[1,1,0],[0,0.25,0],[0,0.5,0],[0,0.75,0],[1,0.25,0],[1,0.5,0],[1,0.75,0]];outlineConnect=0;fontColor=#232F3E;fillColor=#DD344C;strokeColor=#ffffff;dashed=0;verticalLabelPosition=bottom;verticalAlign=top;align=center;html=1;fontSize=12;fontStyle=0;aspect=fixed;shape=mxgraph.aws4.resourceIcon;resIcon=mxgraph.aws4.key_management_service;" vertex="1" parent="TRhLqOV86OLp4Ln8h1bd-273">
          <mxGeometry x="1914" y="1276" width="55" height="55" as="geometry" />
        </mxCell>
        <mxCell id="M_qaYyCu_lWjV66l2fEF-4" value="Generic Group" style="outlineConnect=0;gradientColor=none;html=1;whiteSpace=wrap;fontSize=12;fontStyle=0;strokeColor=#CCFF99;fillColor=none;verticalAlign=top;align=center;fontColor=#879196;dashed=1;spacingTop=3;strokeWidth=3;rotation=90;" vertex="1" parent="TRhLqOV86OLp4Ln8h1bd-273">
          <mxGeometry x="3025" y="693" width="781" height="220" as="geometry" />
        </mxCell>
        <mxCell id="TRhLqOV86OLp4Ln8h1bd-182" value="&lt;h2&gt;SECURITY OU&lt;/h2&gt;" style="whiteSpace=wrap;html=1;align=center;" parent="TRhLqOV86OLp4Ln8h1bd-273" vertex="1">
          <mxGeometry x="2541" y="1595" width="374" height="38" as="geometry" />
        </mxCell>
        <mxCell id="M_qaYyCu_lWjV66l2fEF-7" style="edgeStyle=orthogonalEdgeStyle;rounded=0;orthogonalLoop=1;jettySize=auto;html=1;" edge="1" parent="TRhLqOV86OLp4Ln8h1bd-273" source="TRhLqOV86OLp4Ln8h1bd-168" target="TRhLqOV86OLp4Ln8h1bd-174">
          <mxGeometry relative="1" as="geometry" />
        </mxCell>
        <mxCell id="TRhLqOV86OLp4Ln8h1bd-168" value="Amazon MQ" style="sketch=0;outlineConnect=0;fontColor=#232F3E;gradientColor=none;strokeColor=#ffffff;fillColor=#232F3E;dashed=0;verticalLabelPosition=middle;verticalAlign=bottom;align=center;html=1;whiteSpace=wrap;fontSize=10;fontStyle=1;spacing=3;shape=mxgraph.aws4.productIcon;prIcon=mxgraph.aws4.mq;" parent="TRhLqOV86OLp4Ln8h1bd-273" vertex="1">
          <mxGeometry x="3344.25" y="715" width="109.5" height="130" as="geometry" />
        </mxCell>
        <mxCell id="M_qaYyCu_lWjV66l2fEF-1" value="" style="sketch=0;points=[[0,0,0],[0.25,0,0],[0.5,0,0],[0.75,0,0],[1,0,0],[0,1,0],[0.25,1,0],[0.5,1,0],[0.75,1,0],[1,1,0],[0,0.25,0],[0,0.5,0],[0,0.75,0],[1,0.25,0],[1,0.5,0],[1,0.75,0]];points=[[0,0,0],[0.25,0,0],[0.5,0,0],[0.75,0,0],[1,0,0],[0,1,0],[0.25,1,0],[0.5,1,0],[0.75,1,0],[1,1,0],[0,0.25,0],[0,0.5,0],[0,0.75,0],[1,0.25,0],[1,0.5,0],[1,0.75,0]];outlineConnect=0;fontColor=#232F3E;fillColor=#E7157B;strokeColor=#ffffff;dashed=0;verticalLabelPosition=bottom;verticalAlign=top;align=center;html=1;fontSize=12;fontStyle=0;aspect=fixed;shape=mxgraph.aws4.resourceIcon;resIcon=mxgraph.aws4.organizations;" vertex="1" parent="TRhLqOV86OLp4Ln8h1bd-273">
          <mxGeometry x="1694" y="22" width="154" height="154" as="geometry" />
        </mxCell>
        <mxCell id="M_qaYyCu_lWjV66l2fEF-2" value="&lt;font style=&quot;font-size: 14px;&quot;&gt;&lt;b&gt;CRM OU&lt;/b&gt;&lt;/font&gt;" style="whiteSpace=wrap;html=1;" vertex="1" parent="TRhLqOV86OLp4Ln8h1bd-273">
          <mxGeometry x="671" y="363" width="120" height="60" as="geometry" />
        </mxCell>
        <mxCell id="M_qaYyCu_lWjV66l2fEF-6" style="edgeStyle=orthogonalEdgeStyle;rounded=0;orthogonalLoop=1;jettySize=auto;html=1;" edge="1" parent="TRhLqOV86OLp4Ln8h1bd-273" source="TRhLqOV86OLp4Ln8h1bd-175" target="TRhLqOV86OLp4Ln8h1bd-168">
          <mxGeometry relative="1" as="geometry" />
        </mxCell>
        <mxCell id="TRhLqOV86OLp4Ln8h1bd-175" value="" style="sketch=0;points=[[0,0,0],[0.25,0,0],[0.5,0,0],[0.75,0,0],[1,0,0],[0,1,0],[0.25,1,0],[0.5,1,0],[0.75,1,0],[1,1,0],[0,0.25,0],[0,0.5,0],[0,0.75,0],[1,0.25,0],[1,0.5,0],[1,0.75,0]];outlineConnect=0;fontColor=#232F3E;fillColor=#ED7100;strokeColor=#ffffff;dashed=0;verticalLabelPosition=bottom;verticalAlign=top;align=center;html=1;fontSize=12;fontStyle=0;aspect=fixed;shape=mxgraph.aws4.resourceIcon;resIcon=mxgraph.aws4.lambda;" parent="TRhLqOV86OLp4Ln8h1bd-273" vertex="1">
          <mxGeometry x="3355" y="473" width="88" height="88" as="geometry" />
        </mxCell>
        <mxCell id="TRhLqOV86OLp4Ln8h1bd-174" value="" style="sketch=0;points=[[0,0,0],[0.25,0,0],[0.5,0,0],[0.75,0,0],[1,0,0],[0,1,0],[0.25,1,0],[0.5,1,0],[0.75,1,0],[1,1,0],[0,0.25,0],[0,0.5,0],[0,0.75,0],[1,0.25,0],[1,0.5,0],[1,0.75,0]];outlineConnect=0;fontColor=#232F3E;fillColor=#ED7100;strokeColor=#ffffff;dashed=0;verticalLabelPosition=bottom;verticalAlign=top;align=center;html=1;fontSize=12;fontStyle=0;aspect=fixed;shape=mxgraph.aws4.resourceIcon;resIcon=mxgraph.aws4.lambda;" parent="TRhLqOV86OLp4Ln8h1bd-273" vertex="1">
          <mxGeometry x="3355" y="990" width="88" height="88" as="geometry" />
        </mxCell>
        <mxCell id="TRhLqOV86OLp4Ln8h1bd-133" value="" style="sketch=0;points=[[0,0,0],[0.25,0,0],[0.5,0,0],[0.75,0,0],[1,0,0],[0,1,0],[0.25,1,0],[0.5,1,0],[0.75,1,0],[1,1,0],[0,0.25,0],[0,0.5,0],[0,0.75,0],[1,0.25,0],[1,0.5,0],[1,0.75,0]];outlineConnect=0;fontColor=#232F3E;fillColor=#7AA116;strokeColor=#ffffff;dashed=0;verticalLabelPosition=bottom;verticalAlign=top;align=center;html=1;fontSize=12;fontStyle=0;aspect=fixed;shape=mxgraph.aws4.resourceIcon;resIcon=mxgraph.aws4.s3;" parent="TRhLqOV86OLp4Ln8h1bd-273" vertex="1">
          <mxGeometry x="3341" y="1265" width="116" height="116" as="geometry" />
        </mxCell>
        <mxCell id="M_qaYyCu_lWjV66l2fEF-8" style="edgeStyle=orthogonalEdgeStyle;rounded=0;orthogonalLoop=1;jettySize=auto;html=1;exitX=0.5;exitY=1;exitDx=0;exitDy=0;exitPerimeter=0;entryX=0.5;entryY=0;entryDx=0;entryDy=0;entryPerimeter=0;" edge="1" parent="TRhLqOV86OLp4Ln8h1bd-273" source="TRhLqOV86OLp4Ln8h1bd-174" target="TRhLqOV86OLp4Ln8h1bd-133">
          <mxGeometry relative="1" as="geometry" />
        </mxCell>
        <mxCell id="TRhLqOV86OLp4Ln8h1bd-173" value="" style="sketch=0;points=[[0,0,0],[0.25,0,0],[0.5,0,0],[0.75,0,0],[1,0,0],[0,1,0],[0.25,1,0],[0.5,1,0],[0.75,1,0],[1,1,0],[0,0.25,0],[0,0.5,0],[0,0.75,0],[1,0.25,0],[1,0.5,0],[1,0.75,0]];outlineConnect=0;fontColor=#232F3E;fillColor=#DD344C;strokeColor=#ffffff;dashed=0;verticalLabelPosition=bottom;verticalAlign=top;align=center;html=1;fontSize=12;fontStyle=0;aspect=fixed;shape=mxgraph.aws4.resourceIcon;resIcon=mxgraph.aws4.key_management_service;" parent="TRhLqOV86OLp4Ln8h1bd-273" vertex="1">
          <mxGeometry x="3421" y="1295.5" width="55" height="55" as="geometry" />
        </mxCell>
        <mxCell id="M_qaYyCu_lWjV66l2fEF-10" value="" style="sketch=0;points=[[0,0,0],[0.25,0,0],[0.5,0,0],[0.75,0,0],[1,0,0],[0,1,0],[0.25,1,0],[0.5,1,0],[0.75,1,0],[1,1,0],[0,0.25,0],[0,0.5,0],[0,0.75,0],[1,0.25,0],[1,0.5,0],[1,0.75,0]];outlineConnect=0;fontColor=#232F3E;fillColor=#7AA116;strokeColor=#ffffff;dashed=0;verticalLabelPosition=bottom;verticalAlign=top;align=center;html=1;fontSize=12;fontStyle=0;aspect=fixed;shape=mxgraph.aws4.resourceIcon;resIcon=mxgraph.aws4.s3;" vertex="1" parent="TRhLqOV86OLp4Ln8h1bd-273">
          <mxGeometry x="1815" y="1234.5" width="116" height="116" as="geometry" />
        </mxCell>
        <mxCell id="TRhLqOV86OLp4Ln8h1bd-121" value="" style="sketch=0;points=[[0,0,0],[0.25,0,0],[0.5,0,0],[0.75,0,0],[1,0,0],[0,1,0],[0.25,1,0],[0.5,1,0],[0.75,1,0],[1,1,0],[0,0.25,0],[0,0.5,0],[0,0.75,0],[1,0.25,0],[1,0.5,0],[1,0.75,0]];outlineConnect=0;fontColor=#232F3E;fillColor=#8C4FFF;strokeColor=#ffffff;dashed=0;verticalLabelPosition=bottom;verticalAlign=top;align=center;html=1;fontSize=12;fontStyle=0;aspect=fixed;shape=mxgraph.aws4.resourceIcon;resIcon=mxgraph.aws4.transit_gateway;" parent="TRhLqOV86OLp4Ln8h1bd-273" vertex="1">
          <mxGeometry x="1639" y="1463" width="148" height="148" as="geometry" />
        </mxCell>
        <mxCell id="M_qaYyCu_lWjV66l2fEF-19" value="" style="sketch=0;points=[[0,0,0],[0.25,0,0],[0.5,0,0],[0.75,0,0],[1,0,0],[0,1,0],[0.25,1,0],[0.5,1,0],[0.75,1,0],[1,1,0],[0,0.25,0],[0,0.5,0],[0,0.75,0],[1,0.25,0],[1,0.5,0],[1,0.75,0]];outlineConnect=0;fontColor=#232F3E;fillColor=#E7157B;strokeColor=#ffffff;dashed=0;verticalLabelPosition=bottom;verticalAlign=top;align=center;html=1;fontSize=12;fontStyle=0;aspect=fixed;shape=mxgraph.aws4.resourceIcon;resIcon=mxgraph.aws4.eventbridge;" vertex="1" parent="TRhLqOV86OLp4Ln8h1bd-273">
          <mxGeometry x="3652" y="473" width="78" height="78" as="geometry" />
        </mxCell>
        <mxCell id="M_qaYyCu_lWjV66l2fEF-20" style="edgeStyle=orthogonalEdgeStyle;rounded=0;orthogonalLoop=1;jettySize=auto;html=1;entryX=0.75;entryY=0;entryDx=0;entryDy=0;entryPerimeter=0;" edge="1" parent="TRhLqOV86OLp4Ln8h1bd-273" source="M_qaYyCu_lWjV66l2fEF-19" target="TRhLqOV86OLp4Ln8h1bd-175">
          <mxGeometry relative="1" as="geometry" />
        </mxCell>
        <mxCell id="TRhLqOV86OLp4Ln8h1bd-274" value="&lt;font style=&quot;font-size: 16px;&quot;&gt;DEPLOY&amp;nbsp; INFRASTRUCTURE AS CODE - CLOUD FORMATION STACKSETS&lt;/font&gt;" style="whiteSpace=wrap;html=1;" parent="1" vertex="1">
          <mxGeometry x="2134" y="-1386" width="539" height="77" as="geometry" />
        </mxCell>
        <mxCell id="TRhLqOV86OLp4Ln8h1bd-276" value="" style="image;aspect=fixed;perimeter=ellipsePerimeter;html=1;align=center;shadow=0;dashed=0;fontColor=#4277BB;labelBackgroundColor=default;fontSize=12;spacingTop=3;image=img/lib/ibm/vpc/BlockStorage.svg;" parent="1" vertex="1">
          <mxGeometry x="-2772" y="790" width="143" height="143" as="geometry" />
        </mxCell>
        <mxCell id="TRhLqOV86OLp4Ln8h1bd-277" value="" style="sketch=0;pointerEvents=1;shadow=0;dashed=0;html=1;strokeColor=none;fillColor=#005F4B;labelPosition=center;verticalLabelPosition=bottom;verticalAlign=top;align=center;outlineConnect=0;shape=mxgraph.veeam2.linux_server;" parent="1" vertex="1">
          <mxGeometry x="-2508" y="603" width="176" height="187" as="geometry" />
        </mxCell>
        <mxCell id="TRhLqOV86OLp4Ln8h1bd-278" value="" style="image;aspect=fixed;html=1;points=[];align=center;fontSize=12;image=img/lib/azure2/databases/Azure_Database_MySQL_Server.svg;" parent="1" vertex="1">
          <mxGeometry x="-3036" y="592.75" width="140.25" height="187" as="geometry" />
        </mxCell>
        <mxCell id="TRhLqOV86OLp4Ln8h1bd-279" value="Generic Group" style="outlineConnect=0;gradientColor=none;html=1;whiteSpace=wrap;fontSize=12;fontStyle=0;strokeColor=#CCFF99;fillColor=none;verticalAlign=top;align=center;fontColor=#879196;dashed=1;spacingTop=3;strokeWidth=3;" parent="1" vertex="1">
          <mxGeometry x="-3102" y="132" width="869" height="363" as="geometry" />
        </mxCell>
        <mxCell id="TRhLqOV86OLp4Ln8h1bd-281" value="" style="sketch=0;pointerEvents=1;shadow=0;dashed=0;html=1;strokeColor=none;fillColor=#505050;labelPosition=center;verticalLabelPosition=bottom;verticalAlign=top;outlineConnect=0;align=center;shape=mxgraph.office.concepts.on_premises;" parent="1" vertex="1">
          <mxGeometry x="-4202" y="86" width="1023" height="2375" as="geometry" />
        </mxCell>
        <mxCell id="TRhLqOV86OLp4Ln8h1bd-282" value="" style="image;html=1;image=img/lib/clip_art/computers/Mainframe_128x128.png" parent="1" vertex="1">
          <mxGeometry x="-2640" y="1067" width="319" height="413" as="geometry" />
        </mxCell>
        <mxCell id="TRhLqOV86OLp4Ln8h1bd-284" value="" style="strokeWidth=2;html=1;shape=mxgraph.flowchart.database;whiteSpace=wrap;" parent="1" vertex="1">
          <mxGeometry x="-3003" y="1111" width="198" height="308" as="geometry" />
        </mxCell>
        <mxCell id="TRhLqOV86OLp4Ln8h1bd-293" value="" style="edgeStyle=orthogonalEdgeStyle;rounded=0;orthogonalLoop=1;jettySize=auto;html=1;exitX=0.5;exitY=1;exitDx=0;exitDy=0;exitPerimeter=0;entryX=1;entryY=0.5;entryDx=0;entryDy=0;entryPerimeter=0;strokeWidth=3;strokeColor=#005700;fillColor=#008a00;" parent="1" source="TRhLqOV86OLp4Ln8h1bd-262" target="TRhLqOV86OLp4Ln8h1bd-117" edge="1">
          <mxGeometry relative="1" as="geometry">
            <mxPoint x="5683" y="142" as="sourcePoint" />
            <mxPoint x="5225" y="1232" as="targetPoint" />
          </mxGeometry>
        </mxCell>
        <mxCell id="TRhLqOV86OLp4Ln8h1bd-117" value="&lt;font style=&quot;font-size: 22px;&quot;&gt;CloudFront with custom origins&lt;/font&gt;" style="whiteSpace=wrap;html=1;" parent="1" vertex="1">
          <mxGeometry x="5258" y="1188" width="649" height="88" as="geometry" />
        </mxCell>
        <mxCell id="TRhLqOV86OLp4Ln8h1bd-295" value="" style="sketch=0;outlineConnect=0;fontColor=#232F3E;gradientColor=none;fillColor=#01A88D;strokeColor=none;dashed=0;verticalLabelPosition=bottom;verticalAlign=top;align=center;html=1;fontSize=12;fontStyle=0;aspect=fixed;shape=mxgraph.aws4.datasync_discovery;" parent="1" vertex="1">
          <mxGeometry x="-2399" y="308" width="78" height="77" as="geometry" />
        </mxCell>
        <mxCell id="TRhLqOV86OLp4Ln8h1bd-69" value="" style="outlineConnect=0;dashed=0;verticalLabelPosition=bottom;verticalAlign=top;align=center;html=1;shape=mxgraph.aws3.android;fillColor=#115193;gradientColor=none;" parent="1" vertex="1">
          <mxGeometry x="-2453" y="209" width="132" height="128.5" as="geometry" />
        </mxCell>
        <mxCell id="TRhLqOV86OLp4Ln8h1bd-297" value="" style="sketch=0;outlineConnect=0;fontColor=#232F3E;gradientColor=none;fillColor=#01A88D;strokeColor=none;dashed=0;verticalLabelPosition=bottom;verticalAlign=top;align=center;html=1;fontSize=12;fontStyle=0;aspect=fixed;shape=mxgraph.aws4.datasync_discovery;" parent="1" vertex="1">
          <mxGeometry x="-2332" y="638" width="78" height="77" as="geometry" />
        </mxCell>
        <mxCell id="TRhLqOV86OLp4Ln8h1bd-298" value="" style="sketch=0;outlineConnect=0;fontColor=#232F3E;gradientColor=none;fillColor=#01A88D;strokeColor=none;dashed=0;verticalLabelPosition=bottom;verticalAlign=top;align=center;html=1;fontSize=12;fontStyle=0;aspect=fixed;shape=mxgraph.aws4.datasync_discovery;" parent="1" vertex="1">
          <mxGeometry x="-2618" y="1067" width="78" height="77" as="geometry" />
        </mxCell>
        <mxCell id="TRhLqOV86OLp4Ln8h1bd-299" value="" style="sketch=0;points=[[0,0,0],[0.25,0,0],[0.5,0,0],[0.75,0,0],[1,0,0],[0,1,0],[0.25,1,0],[0.5,1,0],[0.75,1,0],[1,1,0],[0,0.25,0],[0,0.5,0],[0,0.75,0],[1,0.25,0],[1,0.5,0],[1,0.75,0]];outlineConnect=0;fontColor=#232F3E;fillColor=#01A88D;strokeColor=#ffffff;dashed=0;verticalLabelPosition=bottom;verticalAlign=top;align=center;html=1;fontSize=12;fontStyle=0;aspect=fixed;shape=mxgraph.aws4.resourceIcon;resIcon=mxgraph.aws4.datasync;" parent="1" vertex="1">
          <mxGeometry x="-1408" y="319" width="452" height="452" as="geometry" />
        </mxCell>
        <mxCell id="TRhLqOV86OLp4Ln8h1bd-303" value="" style="shape=link;endArrow=classic;startArrow=classic;html=1;rounded=0;strokeWidth=4;entryX=0;entryY=0.5;entryDx=0;entryDy=0;entryPerimeter=0;width=204.2857142857143;" parent="1" target="TRhLqOV86OLp4Ln8h1bd-299" edge="1">
          <mxGeometry width="100" height="100" relative="1" as="geometry">
            <mxPoint x="-2211" y="551" as="sourcePoint" />
            <mxPoint x="-1628" y="550" as="targetPoint" />
          </mxGeometry>
        </mxCell>
        <mxCell id="TRhLqOV86OLp4Ln8h1bd-304" value="" style="shape=link;endArrow=classic;startArrow=classic;html=1;rounded=0;strokeWidth=4;width=198.57142857142858;" parent="1" edge="1">
          <mxGeometry width="100" height="100" relative="1" as="geometry">
            <mxPoint x="-946" y="548" as="sourcePoint" />
            <mxPoint y="550" as="targetPoint" />
          </mxGeometry>
        </mxCell>
        <mxCell id="TRhLqOV86OLp4Ln8h1bd-305" value="" style="shape=link;endArrow=classic;startArrow=classic;html=1;rounded=0;strokeWidth=4;width=204.2857142857143;" parent="1" target="TRhLqOV86OLp4Ln8h1bd-17" edge="1">
          <mxGeometry width="100" height="100" relative="1" as="geometry">
            <mxPoint x="-2200" y="1623" as="sourcePoint" />
            <mxPoint x="-1397" y="1617" as="targetPoint" />
          </mxGeometry>
        </mxCell>
        <mxCell id="TRhLqOV86OLp4Ln8h1bd-306" value="" style="shape=link;endArrow=classic;startArrow=classic;html=1;rounded=0;strokeWidth=4;width=204.2857142857143;entryX=0;entryY=0.697;entryDx=0;entryDy=0;entryPerimeter=0;" parent="1" target="TRhLqOV86OLp4Ln8h1bd-273" edge="1">
          <mxGeometry width="100" height="100" relative="1" as="geometry">
            <mxPoint x="-1034" y="1620.42" as="sourcePoint" />
            <mxPoint x="-22" y="1620" as="targetPoint" />
          </mxGeometry>
        </mxCell>
        <mxCell id="TRhLqOV86OLp4Ln8h1bd-307" value="" style="outlineConnect=0;dashed=0;verticalLabelPosition=bottom;verticalAlign=top;align=center;html=1;shape=mxgraph.aws3.android;fillColor=#5A69A4;gradientColor=none;" parent="1" vertex="1">
          <mxGeometry x="-2524.5" y="1683" width="209" height="209" as="geometry" />
        </mxCell>
        <mxCell id="TRhLqOV86OLp4Ln8h1bd-309" value="" style="sketch=0;pointerEvents=1;shadow=0;dashed=0;html=1;strokeColor=none;fillColor=#505050;labelPosition=center;verticalLabelPosition=bottom;verticalAlign=top;outlineConnect=0;align=center;shape=mxgraph.office.servers.file_server;" parent="1" vertex="1">
          <mxGeometry x="-3060.75" y="1670.06" width="165" height="234.88" as="geometry" />
        </mxCell>
        <mxCell id="TRhLqOV86OLp4Ln8h1bd-310" value="" style="verticalLabelPosition=bottom;html=1;verticalAlign=top;align=center;shape=mxgraph.azure.script_file;pointerEvents=1;" parent="1" vertex="1">
          <mxGeometry x="-2365" y="2167" width="67.75" height="64.5" as="geometry" />
        </mxCell>
        <mxCell id="TRhLqOV86OLp4Ln8h1bd-313" value="" style="outlineConnect=0;dashed=0;verticalLabelPosition=bottom;verticalAlign=top;align=center;html=1;shape=mxgraph.aws3.queue;fillColor=#D9A741;gradientColor=none;" parent="1" vertex="1">
          <mxGeometry x="-2772" y="2222" width="176" height="77" as="geometry" />
        </mxCell>
        <mxCell id="TRhLqOV86OLp4Ln8h1bd-315" value="" style="sketch=0;outlineConnect=0;fontColor=#232F3E;gradientColor=none;fillColor=#8C4FFF;strokeColor=none;dashed=0;verticalLabelPosition=bottom;verticalAlign=top;align=center;html=1;fontSize=12;fontStyle=0;aspect=fixed;pointerEvents=1;shape=mxgraph.aws4.data_lake_resource_icon;" parent="1" vertex="1">
          <mxGeometry x="-3060.5" y="2167" width="255.5" height="255.5" as="geometry" />
        </mxCell>
        <mxCell id="TRhLqOV86OLp4Ln8h1bd-316" value="Generic Group" style="outlineConnect=0;gradientColor=none;html=1;whiteSpace=wrap;fontSize=12;fontStyle=0;strokeColor=#CCFF99;fillColor=none;verticalAlign=top;align=center;fontColor=#879196;dashed=1;spacingTop=3;strokeWidth=3;" parent="1" vertex="1">
          <mxGeometry x="-3096.5" y="2090" width="858" height="495" as="geometry" />
        </mxCell>
        <mxCell id="TRhLqOV86OLp4Ln8h1bd-317" value="" style="sketch=0;pointerEvents=1;shadow=0;dashed=0;html=1;strokeColor=none;fillColor=#505050;labelPosition=center;verticalLabelPosition=bottom;verticalAlign=top;outlineConnect=0;align=center;shape=mxgraph.office.concepts.bandwidth;" parent="1" vertex="1">
          <mxGeometry x="-1110" y="319" width="154" height="165" as="geometry" />
        </mxCell>
        <mxCell id="M_qaYyCu_lWjV66l2fEF-3" value="&lt;font style=&quot;font-size: 14px;&quot;&gt;&lt;b&gt;PRODUCTION OU&lt;/b&gt;&lt;/font&gt;" style="whiteSpace=wrap;html=1;" vertex="1" parent="1">
          <mxGeometry x="561" y="1276" width="120" height="60" as="geometry" />
        </mxCell>
        <mxCell id="M_qaYyCu_lWjV66l2fEF-5" value="&lt;font style=&quot;font-size: 14px;&quot;&gt;&lt;b&gt;BATCH PROCESSING&lt;/b&gt;&lt;/font&gt;" style="whiteSpace=wrap;html=1;" vertex="1" parent="1">
          <mxGeometry x="3344" y="-66" width="209" height="60" as="geometry" />
        </mxCell>
        <mxCell id="M_qaYyCu_lWjV66l2fEF-12" style="edgeStyle=orthogonalEdgeStyle;rounded=0;orthogonalLoop=1;jettySize=auto;html=1;entryX=0.284;entryY=0.569;entryDx=0;entryDy=0;entryPerimeter=0;" edge="1" parent="1" source="TRhLqOV86OLp4Ln8h1bd-132" target="M_qaYyCu_lWjV66l2fEF-10">
          <mxGeometry relative="1" as="geometry" />
        </mxCell>
        <mxCell id="M_qaYyCu_lWjV66l2fEF-13" value="&lt;span style=&quot;font-size: 14px;&quot;&gt;DATA SYNC&lt;/span&gt;" style="whiteSpace=wrap;html=1;" vertex="1" parent="1">
          <mxGeometry x="-1352.5" y="253" width="341" height="55" as="geometry" />
        </mxCell>
        <mxCell id="M_qaYyCu_lWjV66l2fEF-14" value="" style="outlineConnect=0;dashed=0;verticalLabelPosition=bottom;verticalAlign=top;align=center;html=1;shape=mxgraph.aws3.server_migration_service;fillColor=#5294CF;gradientColor=none;" vertex="1" parent="1">
          <mxGeometry x="-1320" y="902" width="242" height="319" as="geometry" />
        </mxCell>
        <mxCell id="M_qaYyCu_lWjV66l2fEF-15" value="" style="sketch=0;points=[[0,0,0],[0.25,0,0],[0.5,0,0],[0.75,0,0],[1,0,0],[0,1,0],[0.25,1,0],[0.5,1,0],[0.75,1,0],[1,1,0],[0,0.25,0],[0,0.5,0],[0,0.75,0],[1,0.25,0],[1,0.5,0],[1,0.75,0]];outlineConnect=0;fontColor=#232F3E;fillColor=#DD344C;strokeColor=#ffffff;dashed=0;verticalLabelPosition=bottom;verticalAlign=top;align=center;html=1;fontSize=12;fontStyle=0;aspect=fixed;shape=mxgraph.aws4.resourceIcon;resIcon=mxgraph.aws4.key_management_service;" vertex="1" parent="1">
          <mxGeometry x="-1386" y="340" width="78" height="78" as="geometry" />
        </mxCell>
        <mxCell id="M_qaYyCu_lWjV66l2fEF-17" value="" style="sketch=0;points=[[0,0,0],[0.25,0,0],[0.5,0,0],[0.75,0,0],[1,0,0],[0,1,0],[0.25,1,0],[0.5,1,0],[0.75,1,0],[1,1,0],[0,0.25,0],[0,0.5,0],[0,0.75,0],[1,0.25,0],[1,0.5,0],[1,0.75,0]];outlineConnect=0;fontColor=#232F3E;fillColor=#DD344C;strokeColor=#ffffff;dashed=0;verticalLabelPosition=bottom;verticalAlign=top;align=center;html=1;fontSize=12;fontStyle=0;aspect=fixed;shape=mxgraph.aws4.resourceIcon;resIcon=mxgraph.aws4.key_management_service;" vertex="1" parent="1">
          <mxGeometry x="-1308" y="956" width="78" height="78" as="geometry" />
        </mxCell>
        <mxCell id="M_qaYyCu_lWjV66l2fEF-18" value="" style="sketch=0;points=[[0,0,0],[0.25,0,0],[0.5,0,0],[0.75,0,0],[1,0,0],[0,1,0],[0.25,1,0],[0.5,1,0],[0.75,1,0],[1,1,0],[0,0.25,0],[0,0.5,0],[0,0.75,0],[1,0.25,0],[1,0.5,0],[1,0.75,0]];outlineConnect=0;fontColor=#232F3E;fillColor=#DD344C;strokeColor=#ffffff;dashed=0;verticalLabelPosition=bottom;verticalAlign=top;align=center;html=1;fontSize=12;fontStyle=0;aspect=fixed;shape=mxgraph.aws4.resourceIcon;resIcon=mxgraph.aws4.key_management_service;" vertex="1" parent="1">
          <mxGeometry x="-1352.5" y="1474" width="78" height="78" as="geometry" />
        </mxCell>
        <mxCell id="M_qaYyCu_lWjV66l2fEF-24" style="edgeStyle=orthogonalEdgeStyle;rounded=0;orthogonalLoop=1;jettySize=auto;html=1;" edge="1" parent="1" source="TRhLqOV86OLp4Ln8h1bd-121" target="TRhLqOV86OLp4Ln8h1bd-237">
          <mxGeometry relative="1" as="geometry" />
        </mxCell>
        <mxCell id="M_qaYyCu_lWjV66l2fEF-25" style="edgeStyle=orthogonalEdgeStyle;rounded=0;orthogonalLoop=1;jettySize=auto;html=1;entryX=0;entryY=0.5;entryDx=0;entryDy=0;" edge="1" parent="1" source="TRhLqOV86OLp4Ln8h1bd-121" target="TRhLqOV86OLp4Ln8h1bd-163">
          <mxGeometry relative="1" as="geometry" />
        </mxCell>
        <mxCell id="M_qaYyCu_lWjV66l2fEF-26" style="edgeStyle=orthogonalEdgeStyle;rounded=0;orthogonalLoop=1;jettySize=auto;html=1;entryX=0;entryY=0.5;entryDx=0;entryDy=0;" edge="1" parent="1" source="TRhLqOV86OLp4Ln8h1bd-121" target="TRhLqOV86OLp4Ln8h1bd-165">
          <mxGeometry relative="1" as="geometry" />
        </mxCell>
      </root>
    </mxGraphModel>
  </diagram>
</mxfile>
